<?xml version="1.0" encoding="utf-8"?>
<!-- Generator: Adobe Illustrator 17.0.0, SVG Export Plug-In . SVG Version: 6.00 Build 0)  -->
<!DOCTYPE svg PUBLIC "-//W3C//DTD SVG 1.1//EN" "http://www.w3.org/Graphics/SVG/1.1/DTD/svg11.dtd">
<svg version="1.1" id="Capa_1" xmlns="http://www.w3.org/2000/svg" xmlns:xlink="http://www.w3.org/1999/xlink" x="0px" y="0px"
	 width="699.07px" height="417.042px" viewBox="0 0 699.07 417.042" enable-background="new 0 0 699.07 417.042"
	 xml:space="preserve">
<path fill="#444242" d="M202.059,211.16c6.095,2.578,11.061,6.179,14.647,11.484c14.82,21.923,2.471,52.264-23.727,57.827
	c-5.856,1.243-11.95,1.816-17.943,1.884c-20.093,0.227-40.191,0.089-60.286,0.085c-4.35-0.001-4.682-0.329-4.682-4.546
	c-0.001-41.093-0.001-82.185,0-123.278c0-4.054,0.333-4.415,4.234-4.411c22.078,0.02,44.156-0.018,66.232,0.121
	c6.472,0.041,12.638,1.759,18.377,4.82c19.319,10.306,20.338,32.046,14.196,44.488C210.687,204.536,207.022,208.283,202.059,211.16z
	 M157.511,222.854c-0.003,0.099-0.007,0.198-0.01,0.296c-7.12,0-14.24-0.005-21.36,0.002c-3.63,0.004-4.306,0.641-4.312,4.192
	c-0.016,10.545-0.017,21.09,0.001,31.635c0.006,3.49,0.79,4.241,4.328,4.244c12.979,0.008,25.959,0.129,38.934-0.069
	c4.197-0.064,8.445-0.684,12.553-1.583c4.624-1.011,8.655-3.399,10.691-7.928c3.068-6.825,3.178-13.868,0.074-20.68
	c-2.864-6.286-8.729-8.536-14.998-9.065C174.81,223.171,166.147,223.167,157.511,222.854z M156.048,203.921c0-0.037,0-0.074,0-0.111
	c6.749,0,13.508,0.22,20.247-0.047c13.362-0.529,20.437-9.433,17.653-21.877c-1.531-6.843-7.256-11.785-15.693-12.068
	c-14.473-0.486-28.968-0.303-43.454-0.386c-2.275-0.013-2.831,1.413-2.825,3.399c0.028,9.091,0,18.182,0.017,27.272
	c0.006,3.156,0.64,3.797,3.804,3.809C142.547,203.939,149.298,203.921,156.048,203.921z"/>
<path fill="#444242" d="M336.064,211.322c0.835,0.402,1.887,0.861,2.895,1.403c8.787,4.727,14.349,11.944,16.142,21.769
	c1.735,9.507,1.124,18.893-3.2,27.7c-5.688,11.587-15.994,16.665-27.997,18.841c-5.022,0.91-10.197,1.308-15.306,1.346
	c-20.095,0.148-40.193,0.063-60.289,0.059c-4.401-0.001-4.667-0.264-4.667-4.517c-0.001-41.094-0.001-82.189,0-123.283
	c0-4.205,0.228-4.441,4.442-4.437c22.078,0.024,44.163-0.244,66.233,0.199c12.472,0.25,23.181,5.083,30.367,15.879
	c7.73,11.614,6.933,28.774-1.803,38.907C340.911,207.472,338.375,209.268,336.064,211.322z M290.829,222.863
	c-0.003,0.096-0.006,0.192-0.009,0.288c-7.119,0-14.238-0.009-21.358,0.004c-3.396,0.006-4.057,0.679-4.061,4.158
	c-0.012,10.544-0.011,21.087-0.001,31.631c0.003,3.554,0.726,4.278,4.251,4.28c12.977,0.007,25.956,0.128,38.929-0.069
	c4.196-0.064,8.457-0.638,12.551-1.577c6.352-1.456,10.877-5.308,12.179-11.938c0.617-3.141,0.787-6.463,0.555-9.659
	c-0.532-7.316-4.171-12.534-11.352-14.856c-1.875-0.606-3.833-1.207-5.777-1.302C308.105,223.401,299.466,223.165,290.829,222.863z
	 M289.533,203.92c0-0.035,0-0.071,0-0.106c6.752,0,13.512,0.214,20.254-0.045c13.826-0.53,21.394-10.737,17.324-23.154
	c-2.452-7.478-8.458-10.558-15.571-10.801c-14.387-0.491-28.798-0.309-43.199-0.379c-2.413-0.012-2.951,1.596-2.948,3.633
	c0.011,9.004-0.012,18.008,0.014,27.011c0.009,3.048,0.793,3.817,3.867,3.83C276.027,203.94,282.78,203.92,289.533,203.92z"/>
<path fill="#444242" d="M602.491,263.266c-2.884,0.001-5.776-0.132-8.65,0.042c-2.387,0.144-3.749-0.713-4.875-2.871
	c-11.325-21.701-22.752-43.348-34.149-65.011c-2.598-4.938-5.117-9.919-7.847-14.783c-0.623-1.109-1.904-2.404-2.995-2.517
	c-0.842-0.087-2.19,1.37-2.753,2.436c-13.159,24.904-26.477,49.73-39.169,74.871c-3.079,6.099-6.434,8.96-13.306,7.939
	c-3.968-0.589-8.096-0.097-12.152-0.11c-3.548-0.012-4.151-1.057-2.444-4.254c19.803-37.071,39.609-74.141,59.416-111.21
	c2.502-4.683,4.933-9.408,7.574-14.012c0.628-1.095,1.984-2.48,2.982-2.461c1.019,0.019,2.364,1.409,2.961,2.523
	c21.481,40.052,42.892,80.141,64.312,120.225c1.018,1.905,2.112,3.774,3.041,5.722c1.08,2.268,0.333,3.415-2.214,3.456
	C608.981,263.305,605.736,263.266,602.491,263.266z"/>
<path fill="#444242" d="M369.655,150.201c2.613,0,5.245,0.199,7.833-0.052c3.028-0.293,4.669,0.846,6.085,3.566
	c13.457,25.853,27.044,51.638,40.649,77.413c0.906,1.716,1.193,4.357,3.87,4.311c2.492-0.043,2.813-2.529,3.688-4.191
	c13.665-25.946,27.308-51.905,40.872-77.904c1.193-2.287,2.589-3.29,5.238-3.202c5.76,0.19,11.53,0.053,17.296,0.061
	c4.019,0.006,4.564,0.907,2.677,4.44c-21.791,40.784-43.586,81.566-65.379,122.348c-0.551,1.032-0.963,2.175-1.687,3.067
	c-0.731,0.901-1.825,2.215-2.66,2.146c-1.041-0.086-2.342-1.203-2.904-2.221c-4.262-7.717-8.373-15.518-12.526-23.295
	c-18.138-33.964-36.275-67.928-54.408-101.895c-1.964-3.679-1.425-4.582,2.707-4.591
	C363.889,150.196,366.772,150.201,369.655,150.201z"/>
</svg>
