<?xml version="1.0" encoding="utf-8"?>
<!-- Generator: Adobe Illustrator 17.0.0, SVG Export Plug-In . SVG Version: 6.00 Build 0)  -->
<!DOCTYPE svg PUBLIC "-//W3C//DTD SVG 1.1//EN" "http://www.w3.org/Graphics/SVG/1.1/DTD/svg11.dtd">
<svg version="1.1" id="Capa_1" xmlns="http://www.w3.org/2000/svg" xmlns:xlink="http://www.w3.org/1999/xlink" x="0px" y="0px"
	 width="699.07px" height="417.042px" viewBox="0 0 699.07 417.042" enable-background="new 0 0 699.07 417.042"
	 xml:space="preserve">
<g>
	<path fill="#444242" d="M228.569,91.981c21.757,0,42.962,0,62.755,0c2.386-3.265,3.847-5.877,5.882-7.919
		c3.859-3.873,8.046-7.42,12.548-11.513c5.228,6.794,14.115,9.924,16.967,19.183c1.787,0,4.098,0,6.409,0
		c-0.264-0.275-0.528-0.55-0.792-0.824c1.612-2.263,2.954-4.798,4.894-6.732c3.954-3.94,8.231-7.556,12.803-11.692
		c5.03,6.995,14.083,9.87,16.748,19.197c1.901,0,4.306,0,6.712,0c-0.255-0.261-0.51-0.523-0.765-0.784
		c1.616-2.271,2.986-4.78,4.903-6.76c3.297-3.405,6.994-6.417,10.401-9.721c1.496-1.451,2.543-1.445,4.042,0.005
		c3.5,3.387,7.293,6.481,10.688,9.965c1.823,1.871,3.071,4.303,5.243,7.443c19.632,0,40.712,0,62.285,0
		c0.078,1.741,0.199,3.176,0.199,4.611c0.013,54.24,0.029,108.48,0.008,162.72c-0.007,16.862-7.52,30.82-17.477,43.666
		c-15.404,19.874-34.598,35.682-55.365,49.495c-14.738,9.803-30.172,18.563-45.38,27.648c-1.239,0.74-3.496,1.07-4.666,0.444
		c-31.272-16.734-60.938-35.81-86.489-60.683c-11.063-10.769-20.833-22.58-27.262-36.811c-3.487-7.719-5.306-15.803-5.302-24.312
		c0.025-53.99,0.011-107.98,0.01-161.97C228.569,95.283,228.569,93.928,228.569,91.981z M244.178,108.644c0,1.68,0,2.904,0,4.128
		c0,47.617,0.095,95.235-0.079,142.851c-0.035,9.557,2.32,18.247,6.88,26.465c6.251,11.265,14.701,20.781,24.035,29.524
		c21.754,20.376,46.475,36.559,72.551,50.76c1.263,0.688,3.684,0.41,5.011-0.365c11.094-6.484,22.315-12.804,33.006-19.914
		c20.552-13.667,40.006-28.724,55.285-48.437c8.075-10.418,14.537-21.69,14.57-35.356c0.115-48.617,0.029-97.233,0.102-145.85
		c0.004-2.827-0.603-3.909-3.714-3.871c-13.87,0.171-27.744,0.066-41.617,0.075c-1.208,0.001-2.415,0.11-4.226,0.198
		c1.812,6.535-1.519,9.591-6.244,13.205c-7.022,5.37-13.007,5.87-20.298,1.169c-4.399-2.836-6.224-5.123-5.852-10.908
		c0.486,0.182,0.96,0.532,1.399,0.492c1.214-0.11,2.512-0.175,3.573-0.683c0.489-0.234,0.879-1.998,0.668-2.145
		c-0.905-0.632-2.028-1.196-3.11-1.279c-2.361-0.18-4.757,0.1-7.116-0.089c-2.607-0.209-3.472,1.014-3.051,3.302
		c0.802,4.366-1.087,7.086-4.945,8.816c-1.014,0.455-2.031,1.06-2.822,1.828c-5.488,5.323-10.83,4.999-17.61,1.561
		c-5.459-2.768-7.245-6.396-7.74-12.001c0.995,0.384,1.795,0.979,2.533,0.91c1.082-0.101,2.217-0.525,3.134-1.115
		c0.442-0.284,0.78-1.685,0.576-1.849c-0.784-0.632-1.79-1.309-2.742-1.354c-3.336-0.159-6.684-0.061-10.065-0.061
		c-0.184,0.87-0.448,1.374-0.358,1.803c1.17,5.58-1.44,8.942-6.348,10.998c-0.225,0.094-0.434,0.26-0.609,0.434
		c-6.184,6.138-12.548,6.168-19.813,1.495c-4.787-3.079-6.454-4.931-6.127-10.39c1.779-0.247,3.47-0.277,4.986-0.808
		c0.495-0.173,0.535-1.647,0.783-2.527c-1.628-0.337-3.255-0.959-4.885-0.968c-15.122-0.076-30.245-0.046-45.367-0.046
		C247.195,108.644,245.857,108.644,244.178,108.644z M235.09,103.095c1.635,1.965,3.014,3.622,4.31,5.18
		c1.714-1.553,3.239-2.935,4.41-3.995c-1.496-1.951-2.82-3.676-4.057-5.289C237.815,100.696,236.27,102.056,235.09,103.095z
		 M344.9,368.967c1.794,1.874,3.222,3.366,4.895,5.114c1.68-1.76,3.122-3.27,4.084-4.277c-1.365-1.967-2.614-3.765-3.842-5.535
		C348.066,366.072,346.608,367.405,344.9,368.967z M458.821,107.905c1.812-1.359,3.56-2.67,4.87-3.652
		c-1.6-2.07-2.882-3.729-4.041-5.229c-1.92,1.82-3.413,3.235-4.803,4.553C456.353,105.217,457.751,106.74,458.821,107.905z"/>
	<path fill="#444242" d="M255.979,166.576c8.188,0,16.375,0,24.563,0c0.042,0.221,0.084,0.443,0.126,0.664
		c-0.714,0.189-1.417,0.459-2.142,0.553c-2.613,0.34-4.206,1.783-4.177,4.411c0.145,12.973-0.272,26,0.815,38.899
		c0.9,10.682,10.82,16.066,21.04,12.685c6.719-2.223,9.738-7.505,9.981-14.002c0.429-11.475,0.235-22.975,0.183-34.464
		c-0.021-4.6-3.151-6.077-7.156-6.885c7.023,0,14.047,0,21.07,0c-7.374,0.999-6.261,6.677-6.389,11.569
		c-0.232,8.86,0.063,17.755-0.63,26.575c-1.162,14.788-10.241,22.698-24.979,22.536c-15.69-0.172-24.178-8.532-24.523-24.435
		c-0.198-9.115,0.026-18.239-0.105-27.357C263.537,169.113,264.416,168.833,255.979,166.576z"/>
	<path fill="#444242" d="M398.869,168.504c-5.24,2.168-5.295,2.193-3.057,7.256c5.144,11.634,10.343,23.244,15.534,34.857
		c0.294,0.657,0.724,1.252,1.348,2.316c4.144-10.344,8.13-20.272,12.097-30.207c1.294-3.241,2.593-6.482,3.789-9.76
		c1.486-4.075,1.134-4.572-3.272-5.237c-0.44-0.066-0.861-0.259-1.24-1.038c6.479,0,12.959,0,19.438,0
		c-6.355,0.775-7.73,5.972-9.759,10.585c-6.981,15.867-13.975,31.729-21.002,47.575c-0.639,1.441-1.547,2.762-2.71,4.806
		c-1.023-1.449-1.827-2.304-2.308-3.313c-8.092-17.003-16.249-33.977-24.132-51.077c-2.048-4.443-5.646-5.564-9.789-6.763
		C382.161,168.504,390.515,168.504,398.869,168.504z"/>
	<path fill="#444242" d="M371.532,183.777c-1.295-0.555-1.499-0.591-1.508-0.654c-1.205-8.595-6.996-11.784-14.813-12.461
		c-9.709-0.841-18.576,0.476-23.872,10.086c-5.818,10.559-3.436,27.446,5.088,35.953c7.396,7.382,16.276,9.211,26.21,6.72
		c4.33-1.086,7.182-3.828,8.575-8.086c0.29-0.887,0.668-1.745,1.105-2.873c3.033,7.164-0.431,14.535-7.375,15.661
		c-11.383,1.845-22.71,2.022-33.111-4.032c-11.645-6.779-16.991-19.934-14.075-33.883c2.582-12.353,13.232-22.119,26.671-23.113
		c8.259-0.611,16.638,0.331,24.957,0.702c0.737,0.033,2.032,0.982,2.052,1.542C371.604,174.003,371.532,178.675,371.532,183.777z"/>
	<path fill="#444242" d="M361.716,337.041c5.062-15.739,9.899-30.796,14.747-45.85c2.79-8.662,5.694-17.289,8.334-25.996
		c0.719-2.372,1.822-3.171,4.218-3.021c3.101,0.193,6.224,0.047,9.85,0.047c-2.354,7.312-4.598,14.271-6.836,21.232
		c-5.381,16.732-10.816,33.448-16.081,50.217c-0.81,2.58-1.927,3.673-4.701,3.43C368.281,336.839,365.276,337.041,361.716,337.041z"
		/>
	<path fill="#444242" d="M341.61,337.045c1.584-4.956,3.043-9.554,4.524-14.144c6.203-19.227,12.467-38.435,18.55-57.7
		c0.749-2.371,1.767-3.183,4.163-3.036c3.103,0.19,6.226,0.046,9.858,0.046c-2.491,7.813-4.849,15.258-7.238,22.693
		c-5.226,16.268-10.527,32.513-15.644,48.816c-0.82,2.614-2.023,3.6-4.742,3.379C348.114,336.859,345.112,337.045,341.61,337.045z"
		/>
	<path fill="#444242" d="M321.423,337.031c3.322-10.298,6.452-19.993,9.577-29.689c4.508-13.989,9.072-27.96,13.46-41.987
		c0.765-2.445,1.836-3.419,4.434-3.202c2.965,0.248,5.967,0.057,9.291,0.057c-0.186,1.08-0.229,1.9-0.472,2.656
		c-7.374,23.011-14.795,46.007-22.119,69.033c-0.764,2.401-1.873,3.434-4.505,3.193
		C328.127,336.822,325.121,337.031,321.423,337.031z"/>
	<path fill="#444242" d="M419.036,262.213c-3.618,11.219-7.057,21.875-10.492,32.532c-3.442,10.681-6.862,21.369-10.328,32.042
		c-2.268,6.985-8.177,10.737-16.216,9.969c0.531-1.687,1.023-3.283,1.534-4.872c7.054-21.956,14.161-43.896,21.106-65.886
		c0.883-2.796,1.963-4.217,5.134-3.852C412.601,262.469,415.494,262.213,419.036,262.213z"/>
	<path fill="#444242" d="M325.49,262.352c4.302,0,8.28,0,12.535,0c-0.176,0.999-0.226,1.843-0.476,2.623
		c-7.385,23.029-14.785,46.054-22.197,69.075c-1.084,3.368-2.448,3.887-5.5,2.192c-0.217-0.121-0.41-0.285-0.62-0.419
		c-6.286-4.018-6.291-4.019-4.016-11.089c6.452-20.053,12.907-40.105,19.37-60.155C324.815,263.87,325.145,263.194,325.49,262.352z"
		/>
	<path fill="#444242" d="M297.397,327.168c-3.727-3.008-6.911-5.578-10.379-8.376c2.385-7.41,4.779-14.839,7.168-22.269
		c3.353-10.425,6.77-20.83,10.003-31.292c0.702-2.273,1.678-3.255,4.144-3.075c3.079,0.224,6.186,0.054,9.958,0.054
		C311.292,283.968,304.455,305.225,297.397,327.168z"/>
	<path fill="#444242" d="M439.169,262.211c-4.162,12.958-8.344,25.211-11.977,37.626c-1.716,5.863-4.382,10.659-9.324,14.336
		c-3.667,2.728-6.993,5.915-11.162,8.466c1.621-5.143,3.22-10.294,4.869-15.428c4.495-13.997,9.054-27.973,13.474-41.993
		c0.716-2.27,1.769-3.229,4.216-3.059C432.357,262.374,435.475,262.211,439.169,262.211z"/>
	<path fill="#444242" d="M281.457,314.095c-3.246-3.15-6.188-5.809-8.845-8.728c-0.622-0.684-0.647-2.362-0.324-3.387
		c3.93-12.463,7.928-24.905,12.082-37.295c0.347-1.035,1.885-2.253,2.965-2.353c3.328-0.307,6.703-0.112,10.803-0.112
		C292.563,279.555,287.114,296.501,281.457,314.095z"/>
	<path fill="#444242" d="M266.177,298.973c-3.163-4.088-5.813-7.361-8.251-10.785c-0.519-0.729-0.601-2.107-0.322-3.013
		c2.121-6.886,4.295-13.76,6.692-20.553c0.363-1.028,1.913-2.203,3.006-2.302c3.326-0.301,6.697-0.109,10.7-0.109
		C274.082,274.397,270.28,286.217,266.177,298.973z"/>
	<path fill="#444242" d="M435.725,294.841c3.322-10.268,6.484-20.593,10.158-30.733c0.481-1.328,3.582-1.708,5.756-2.061
		C450.397,275.278,443.988,285.488,435.725,294.841z"/>
	<path fill="#444242" d="M303.845,143.286c0.709,1.876,0.244,2.896-2.078,2.893c-17.573-0.028-35.147,0.005-52.719-0.094
		c-0.734-0.004-1.462-1.12-2.193-1.718c0.668-0.529,1.336-1.519,2.005-1.52c18.191-0.02,36.382,0.06,54.574,0.133
		C303.532,142.981,303.629,143.121,303.845,143.286z"/>
	<path fill="#444242" d="M396.2,142.958c18.696,0,37.392,0,56.156,0c0.679,2.037,0.519,3.225-1.93,3.221
		c-17.487-0.031-34.973,0.014-52.459-0.106c-0.921-0.006-1.833-1.298-2.749-1.991C395.545,143.707,395.873,143.332,396.2,142.958z"
		/>
	<path fill="#444242" d="M246.279,262.364c4.469,0,7.684,0,11.48,0c-1.725,5.432-3.381,10.649-5.037,15.866
		c-0.392,0.065-0.784,0.129-1.177,0.194C249.863,273.294,248.181,268.165,246.279,262.364z"/>
	<text transform="matrix(1 0 0 1 309.6233 149.1486)" fill="#444242" font-family="'TrajanPro3-Regular'" font-size="16">TRUJILLO</text>
	<text transform="matrix(1 0 0 1 267.7235 249.6389)" fill="#444242" font-family="'TrajanPro3-Regular'" font-size="16">CLUB DEPORTIVO</text>
	<text transform="matrix(1 0 0 1 338.0254 353.1487)" fill="#444242" font-family="'TrajanPro3-Regular'" font-size="12">1996</text>
</g>
</svg>
