<svg xmlns="http://www.w3.org/2000/svg" viewBox="0 0 200 230">
  <!-- Outer green ring -->
  <circle cx="100" cy="100" r="92" fill="none" stroke="#6B8E4E" stroke-width="6"/>

  <!-- Inner brown circle -->
  <circle cx="100" cy="100" r="83" fill="#5D4E37"/>

  <!-- TRUJILLO text curved at top -->
  <defs>
    <path id="topArc" d="M 30,85 A 72,72 0 0,1 170,85" fill="none"/>
  </defs>
  <text fill="#F5F3EF" font-size="13" font-weight="700" font-family="Arial, Helvetica, sans-serif" letter-spacing="5">
    <textPath href="#topArc" startOffset="50%" text-anchor="middle">TRUJILLO</textPath>
  </text>

  <!-- Natural text -->
  <text x="100" y="105" fill="#F5F3EF" font-size="38" font-weight="400" font-family="Brush Script MT, Segoe Script, Bradley Hand, cursive" text-anchor="middle" font-style="italic">Natural</text>

  <!-- Bowls text -->
  <text x="100" y="150" fill="#F5F3EF" font-size="38" font-weight="400" font-family="Brush Script MT, Segoe Script, Bradley Hand, cursive" text-anchor="middle" font-style="italic">Bowls</text>

  <!-- Monstera leaf at bottom -->
  <g transform="translate(38, 170)">
    <!-- Main leaf shape -->
    <path d="M62,2
      Q20,8 5,35
      Q-5,55 5,72
      Q15,85 40,88
      Q62,92 85,88
      Q110,85 120,72
      Q130,55 120,35
      Q105,8 62,2 Z"
      fill="#6B8E4E"/>

    <!-- Central vein -->
    <path d="M62,8 L62,82" stroke="#5A7A40" stroke-width="2.5" fill="none"/>

    <!-- Left veins -->
    <path d="M62,25 Q42,32 18,45" stroke="#5A7A40" stroke-width="1.5" fill="none"/>
    <path d="M62,45 Q45,52 25,62" stroke="#5A7A40" stroke-width="1.5" fill="none"/>
    <path d="M62,62 Q50,68 38,75" stroke="#5A7A40" stroke-width="1.5" fill="none"/>

    <!-- Right veins -->
    <path d="M62,25 Q82,32 106,45" stroke="#5A7A40" stroke-width="1.5" fill="none"/>
    <path d="M62,45 Q79,52 99,62" stroke="#5A7A40" stroke-width="1.5" fill="none"/>
    <path d="M62,62 Q74,68 86,75" stroke="#5A7A40" stroke-width="1.5" fill="none"/>

    <!-- Fenestrations (characteristic monstera holes) -->
    <ellipse cx="38" cy="42" rx="8" ry="12" fill="#5D4E37" opacity="0.2"/>
    <ellipse cx="86" cy="42" rx="8" ry="12" fill="#5D4E37" opacity="0.2"/>
    <ellipse cx="32" cy="65" rx="6" ry="9" fill="#5D4E37" opacity="0.2"/>
    <ellipse cx="92" cy="65" rx="6" ry="9" fill="#5D4E37" opacity="0.2"/>
  </g>

  <!-- SMOOTHIES & CAFÉ text on leaf -->
  <text x="100" y="215" fill="#F5F3EF" font-size="10" font-weight="700" font-family="Arial, Helvetica, sans-serif" text-anchor="middle" letter-spacing="1">SMOOTHIES &amp; CAFÉ</text>
</svg>
