<?xml version="1.0" encoding="utf-8"?>
<!-- Generator: Adobe Illustrator 17.0.0, SVG Export Plug-In . SVG Version: 6.00 Build 0)  -->
<!DOCTYPE svg PUBLIC "-//W3C//DTD SVG 1.1//EN" "http://www.w3.org/Graphics/SVG/1.1/DTD/svg11.dtd">
<svg version="1.1" id="Capa_1" xmlns="http://www.w3.org/2000/svg" xmlns:xlink="http://www.w3.org/1999/xlink" x="0px" y="0px"
	 width="699.07px" height="417.042px" viewBox="0 0 699.07 417.042" enable-background="new 0 0 699.07 417.042"
	 xml:space="preserve">
	   <defs>
    <style>
      .leaf { fill: #6B8E4E; opacity: 0.06; }
    </style>
  </defs>
	 
<path class="leaf" d="M347.069,232.022c-22.822-9.037-44.336-17.936-66.131-26.084c-23.501-8.786-41.513-23.328-51.857-46.663
	c-0.765,0.312-1.53,0.624-2.295,0.936c2.519,6.027,4.531,12.33,7.647,18.03c11.187,20.464,30.786,30.194,51.164,38.362
	c14.211,5.696,28.72,10.834,43.433,15.042c19.167,5.481,28.787,17.524,28.625,38.589c-11.694-4.166-20.519,3.295-29.973,8.461
	c-11.854,6.478-24.253,8.304-37.356,5.308c-26.413-6.04-51.372-14.747-68.035-38.386c-0.775,0.746-1.55,1.491-2.324,2.237
	c5.973,7.033,10.856,15.574,18.121,20.817c22.201,16.022,46.221,28.618,74.969,22.933c8.432-1.668,16.173-6.913,24.175-10.639
	c3.04-1.416,5.781-3.548,8.9-4.705c10.032-3.721,13.715-0.572,12.33,10.055c-1.108,8.498-2.66,17.008-2.843,25.537
	c-0.165,7.709-3.845,12.431-9.565,16.674c-32.323,23.976-52.166,25.03-86.976,4.417c-0.716-0.424-1.568-0.618-2.606-0.331
	c13.579,12.374,29.367,19.606,48.044,20.034c19.397,0.444,34.235-9.239,47.417-22.554c0.979,0.467,1.957,0.934,2.936,1.401
	c-2.96,13.826-5.003,27.936-9.174,41.387c-3.233,10.423-13.149,13.025-23.204,13.175c-24.676,0.37-46.552-7.894-62.236-26.655
	c-13.637-16.312-24.288-35.125-36.148-52.906c-0.711-1.067-0.439-2.79-0.896-6.287c10.375,4.476,19.162,9.314,28.562,12.046
	c10.684,3.105,21.889,4.49,32.931,6.212c1.949,0.304,4.212-1.408,6.33-2.189c-1.193-2.263-1.818-5.65-3.68-6.592
	c-7.324-3.706-14.997-6.743-22.635-9.794c-1.936-0.773-4.214-0.719-6.343-0.978c-32.756-3.999-45.247-16.909-47.515-49.843
	c-0.536-7.778,0.229-15.645,0.422-24.737c4.106,1.755,6.64,2.649,9,3.877c21.215,11.037,42.337,22.257,63.642,33.119
	c4.85,2.473,10.197,4.239,15.519,5.399c2.464,0.537,6.687-0.336,7.809-2.065c1.27-1.957,1.121-6.78-0.428-8.295
	c-7.767-7.595-15.685-15.228-24.497-21.521c-16.899-12.069-35.701-21.762-51.398-35.154c-20.823-17.766-23.31-49.688-8.126-70.861
	c0.774,0.21,1.915,0.164,2.417,0.707c17.631,19.098,35.03,38.415,52.915,57.271c3.888,4.099,9.243,7.079,14.408,9.566
	c2.229,1.073,6.744,0.607,8.328-1.011c1.938-1.981,3.331-6.456,2.406-8.877c-2.031-5.313-4.778-10.956-8.827-14.774
	c-10.228-9.642-21.134-18.606-32.152-27.358c-10.582-8.406-18.971-18.199-23.209-31.212c-3.476-10.673-0.769-16.891,7.245-24.38
	c7.95-7.429,15.46-15.73,21.419-24.795c8.306-12.637,7.955-18.44,1.85-32.993c1.783,1.163,3.011,1.65,3.807,2.528
	c16.877,18.642,38.364,27.902,62.864,31.224c4.227,0.573,8.494,1.463,12.509,2.87c10.407,3.647,15.119,10.374,12.965,21.219
	c-2.196,11.055-6.146,21.766-9.416,32.601c-2.504,8.295-5.469,16.516-2.119,25.634c21.418-22.319,27.384-49.184,22.477-81.371
	c11.297,5.931,21.635,10.032,30.458,16.274c16.779,11.872,22.103,30.195,13.262,48.736c-8.933,18.734-19.605,36.689-30.286,54.524
	c-7.453,12.444-8.799,15.727-4.772,24.659c38.503-24.74,46.184-62.956,45.405-104.964c1.067-0.25,2.133-0.5,3.2-0.75
	c10.749,19.609,22.816,38.632,31.879,58.993c9.16,20.579,3.854,39.852-13.121,55.013c-10.711,9.567-22.111,18.359-33.109,27.609
	c-2.864,2.409-5.383,5.229-7.321,8.818c19.904-0.522,31.728-15.193,45.468-25.851c14.81-11.488,19.519-28.831,21.515-47.052
	c1.157-0.042,2.314-0.083,3.47-0.125c1.342,4.929,2.672,9.861,4.027,14.787c10.673,38.794,5.078,76.775-7.535,113.784
	c-6.863,20.137-22.089,35.278-38.371,48.511c-8.927,7.255-19.902,9.251-31.219,4.579c-0.567-0.234-1.132-0.482-1.719-0.656
	c-11.591-3.439-25.037-4-30.959-17.116c-7.248-16.053-12.079-32.701-8.85-50.69c2.164-12.053,9.235-15.555,19.617-8.792
	c6.372,4.151,11.833,9.685,17.806,14.469c14.512,11.625,28.045,11.16,40.682-2.449c16.229-17.476,27.217-37.71,29.193-62.03
	c0.098-1.211,0.027-2.451-0.12-3.659c-0.066-0.541-0.513-1.036-1.384-2.677c-4.443,19.55-11.431,37.022-23.672,51.99
	c-1.356,1.658-2.65,3.372-4.088,4.956c-16.601,18.285-23.791,18.791-43.264,3.121c-8.977-7.223-18.019-14.284-30.634-9.435
	c-4.484-21.996-6.596-26.131,12.726-40.358c6.608-4.866,13.992-8.753,21.268-12.624c28.417-15.116,44.227-47.212,38.744-79.805
	c-2.569,10.924-4.33,21.609-7.644,31.789c-5.61,17.23-16.679,30.835-32.079,40.173c-13.905,8.432-28.042,16.262-37.096,31.136
	c-16.175-28.56-10.68-54.055,5.643-79.433c9.195-14.295,17.055-29.627,23.862-45.214c4.447-10.183,3.419-21.535-0.881-32.341
	c-0.947,0.556-1.88,0.902-1.85,1.115c2.966,21.422-4.634,39.722-16.673,56.715c-10.579,14.931-22.583,29.105-25.367,48.644
	c-15.745-44.92-29.224-90.391-61.932-126.537C317.146,122.376,331.994,176.916,347.069,232.022z"/>
</svg>
