<svg xmlns="http://www.w3.org/2000/svg" viewBox="0 0 400 400" opacity="0.06">
  <defs>
    <style>
      .leaf { fill: #6B8E4E; }
    </style>
  </defs>
  <!-- Monstera Leaf 1 -->
  <g transform="translate(50, 50) rotate(15)">
    <path class="leaf" d="M60,150 Q30,100 60,50 Q70,30 90,40 Q110,20 130,40 Q150,30 160,50 Q180,40 190,60 Q210,50 210,80 Q230,90 220,120 Q240,140 220,160 Q230,180 210,190 Q220,210 190,210 Q180,230 150,220 Q130,240 110,220 Q90,230 80,210 Q50,210 50,180 Q30,170 40,150 Q20,130 40,120 Q30,100 60,100 Z"/>
    <!-- Leaf cuts -->
    <ellipse cx="100" cy="90" rx="15" ry="25" fill="white"/>
    <ellipse cx="140" cy="100" rx="12" ry="20" fill="white"/>
    <ellipse cx="170" cy="130" rx="10" ry="18" fill="white"/>
    <ellipse cx="160" cy="170" rx="12" ry="20" fill="white"/>
    <ellipse cx="120" cy="180" rx="15" ry="22" fill="white"/>
    <ellipse cx="80" cy="160" rx="12" ry="18" fill="white"/>
    <!-- Stem -->
    <path d="M120,220 Q115,260 130,300" stroke="#5D4E37" stroke-width="4" fill="none"/>
  </g>

  <!-- Monstera Leaf 2 -->
  <g transform="translate(250, 200) rotate(-20) scale(0.8)">
    <path class="leaf" d="M60,150 Q30,100 60,50 Q70,30 90,40 Q110,20 130,40 Q150,30 160,50 Q180,40 190,60 Q210,50 210,80 Q230,90 220,120 Q240,140 220,160 Q230,180 210,190 Q220,210 190,210 Q180,230 150,220 Q130,240 110,220 Q90,230 80,210 Q50,210 50,180 Q30,170 40,150 Q20,130 40,120 Q30,100 60,100 Z"/>
    <ellipse cx="100" cy="90" rx="15" ry="25" fill="white"/>
    <ellipse cx="140" cy="100" rx="12" ry="20" fill="white"/>
    <ellipse cx="170" cy="130" rx="10" ry="18" fill="white"/>
    <ellipse cx="160" cy="170" rx="12" ry="20" fill="white"/>
    <ellipse cx="120" cy="180" rx="15" ry="22" fill="white"/>
    <ellipse cx="80" cy="160" rx="12" ry="18" fill="white"/>
    <path d="M120,220 Q115,260 130,300" stroke="#5D4E37" stroke-width="4" fill="none"/>
  </g>

  <!-- Small leaf 3 -->
  <g transform="translate(320, 30) rotate(45) scale(0.5)">
    <path class="leaf" d="M60,150 Q30,100 60,50 Q70,30 90,40 Q110,20 130,40 Q150,30 160,50 Q180,40 190,60 Q210,50 210,80 Q230,90 220,120 Q240,140 220,160 Q230,180 210,190 Q220,210 190,210 Q180,230 150,220 Q130,240 110,220 Q90,230 80,210 Q50,210 50,180 Q30,170 40,150 Q20,130 40,120 Q30,100 60,100 Z"/>
    <ellipse cx="100" cy="90" rx="15" ry="25" fill="white"/>
    <ellipse cx="140" cy="100" rx="12" ry="20" fill="white"/>
    <ellipse cx="160" cy="170" rx="12" ry="20" fill="white"/>
    <ellipse cx="80" cy="160" rx="12" ry="18" fill="white"/>
  </g>
</svg>
