<?xml version="1.0" encoding="utf-8"?>
<!-- Generator: Adobe Illustrator 17.0.0, SVG Export Plug-In . SVG Version: 6.00 Build 0)  -->
<!DOCTYPE svg PUBLIC "-//W3C//DTD SVG 1.1//EN" "http://www.w3.org/Graphics/SVG/1.1/DTD/svg11.dtd">
<svg version="1.1" id="Capa_1" xmlns="http://www.w3.org/2000/svg" xmlns:xlink="http://www.w3.org/1999/xlink" x="0px" y="0px"
	 width="1080px" height="1080px" viewBox="0 0 1080 1080" enable-background="new 0 0 1080 1080" xml:space="preserve">
<path fill-rule="evenodd" clip-rule="evenodd" fill="#ffffff" d="M919.232,773.196c-1.576-24.89-79.078,28.029-103.565,34.478
	c-12.822,3.373,38.42-55.683,24.89-55.507c-8.976,0.122-17.725-0.883-26.656-2.414c-23.893-4.096-46.719-11.451-69.135-19.705
	c-14.634-5.391-29.421-8.337-44.747-9.723c-28.248-2.551-52.057,8.246-74.381,23.139c-3.556,2.376-6.914,4.942-9.982,8.078
	c-6.266,6.403-13.416,12.015-20.299,18.037c-1.188-2.01-0.114-3.213,0.602-4.492c10.607-19.21,23.641-36.554,41.938-49.872
	c1.683-1.218,4.622-2.269,3.662-4.667c-0.929-2.315-3.875-1.439-5.999-1.279c-20.512,1.5-41.039,2.886-61.528,4.652
	c-17.401,1.508-34.739,3.601-51.801,7.37c-5.277,1.165-10.485,2.977-13.705,7.18c-6.639,8.65-14.527,16.355-20.398,25.598
	c-3.038,4.766-7.165,8.909-11.132,13.736c-1.18-3.305,0.571-5.299,1.431-7.34c6.594-15.655,13.401-31.218,21.205-46.377
	c4.233-8.223,2.338-11.086-7.241-10.172c-15.7,1.5-31.415,1.165-47.13,1.081c-29.555-0.152-58.956-0.107-88.342,4.766
	c-32.413,5.36-62.576,14.817-87.489,35.945c-16.263,13.804-28.164,31.21-40.072,48.379c-0.882,1.271-0.823,1.346-1.856,2.434
	c-1.482,3.401-4.132,7.859-5.842,11.204c-0.99,3.159-6.689,13.13-7.323,23.506c-1.81,10.373-3.243,19.393-5.273,30.743
	c-0.251,7.314,0.549,18.683,0,26.01c5.955,35.196,26.14,62.883,57.881,82.861c14.356,9.038,30.399,15.19,45.779,22.423
	c14.764,6.951,31.149,10.446,45.181,19.088c3.099,1.904,5.151,0.967,6.107-2.772c3.936-15.38,8.592-30.578,10.267-46.453
	c1.009-9.57,0.872-19.21,2.341-28.895c4.804,7.66,7.317,16.058,9.502,24.479c5.125,19.789,6.343,40.087,7.79,60.325
	c0.342,4.804,1.926,8.132,7.183,9.198c7.686,1.561,15.171,3.838,22.739,5.794c16.02,4.135,32.475,6.449,48.96,8.231
	c23.992,2.589,48.037,3.799,72.127,0.761c19.076-2.406,37.16-8.018,55.372-13.797c26.025-8.261,50.595-19.583,75.629-29.938
	c2.894-1.188,3.967-2.802,2.992-5.939c-1.706-5.459-3.19-11.002-4.401-16.583c-3.799-17.55-5.916-35.458-11.977-52.552
	c-0.579-1.63-2.148-3.259-0.419-5.581c2.048,1.736,4.218,3.22,5.946,5.078c15.685,16.949,26.367,36.752,35.626,57.356
	c4.332,9.639,4.683,9.891,14.878,6.837c21.403-6.403,42.691-12.776,62.906-22.598c24.89-12.091,48.189-25.88,69.044-43.75
	c21.882-18.753,39.074-40.537,51.371-65.967C914.541,829.435,921.059,802.085,919.232,773.196z"/>
<g>
	<path fill="#FFFFFF" d="M265.267,865.534c-1.595,4.057-4.125,6.833-7.592,8.329c-3.311,1.435-6.79,1.435-10.435,0.002
		c-5.912-2.324-9.041-7.485-9.386-15.483l8.446-1.931c0.353,4.971,1.829,7.966,4.429,8.988c1.206,0.474,2.436,0.499,3.691,0.075
		c1.392-0.443,2.35-1.33,2.873-2.66c0.548-1.396,0.454-3.204-0.284-5.426c-0.286-0.881-1.01-2.527-2.172-4.941
		c-2.173-4.498-3.562-7.777-4.167-9.837c-1.261-4.213-1.296-7.834-0.106-10.862c1.358-3.454,3.647-5.866,6.867-7.234
		c3.074-1.328,6.159-1.384,9.257-0.166c4.174,1.642,7.194,5.749,9.058,12.323l-8.168,3.555c-0.77-4.073-2.218-6.528-4.346-7.364
		c-0.867-0.341-1.75-0.391-2.648-0.151c-1.027,0.288-1.725,0.904-2.095,1.846c-0.312,0.793-0.371,1.635-0.177,2.526
		c0.272,1.244,1.41,4.027,3.413,8.349c1.923,4.133,3.043,6.656,3.359,7.569C266.691,857.59,266.752,861.755,265.267,865.534z"/>
	<path fill="#FFFFFF" d="M318.618,894.918l-7.947-2.216l3.951-32.084l-17.752,28.236l-7.235-2.017l-0.466-33.315l-13.306,29.477
		l-8.035-2.24l21.041-46.681l8.035,2.24l0.504,36.791l19.612-31.184l7.917,2.208L318.618,894.918z"/>
	<path fill="#FFFFFF" d="M376.243,879.853c-1.31,7.246-4.608,12.997-9.894,17.251c-5.286,4.255-11.134,5.802-17.545,4.644
		c-6.491-1.174-11.496-4.689-15.015-10.548c-3.52-5.858-4.616-12.455-3.29-19.792c0.857-4.74,2.655-8.926,5.395-12.557
		c2.739-3.631,6.131-6.305,10.174-8.021c3.975-1.682,8.02-2.151,12.134-1.408c6.391,1.156,11.336,4.72,14.835,10.69
		C376.485,866.026,377.553,872.606,376.243,879.853z M367.868,878.269c0.851-4.704,0.203-8.944-1.943-12.72
		c-2.194-3.854-5.36-6.154-9.498-6.902c-4.239-0.767-8.018,0.268-11.338,3.101c-3.264,2.75-5.331,6.534-6.202,11.352
		c-0.998,5.52-0.038,10.201,2.88,14.046c2.265,3.002,5.156,4.821,8.675,5.457c4.099,0.741,7.84-0.311,11.224-3.156
		C364.954,886.677,367.021,882.951,367.868,878.269z"/>
	<path fill="#FFFFFF" d="M428.656,885.843c-0.817,7.317-3.719,13.277-8.705,17.88c-4.986,4.602-10.717,6.541-17.191,5.818
		c-6.555-0.732-11.786-3.901-15.693-9.509c-3.908-5.606-5.447-12.114-4.62-19.524c0.535-4.787,2.046-9.085,4.534-12.893
		c2.487-3.808,5.69-6.705,9.609-8.69c3.852-1.947,7.856-2.689,12.011-2.225c6.454,0.721,11.628,3.941,15.523,9.662
		C427.963,872.031,429.474,878.524,428.656,885.843z M420.193,884.828c0.531-4.752-0.402-8.938-2.798-12.56
		c-2.449-3.696-5.763-5.778-9.943-6.245c-4.28-0.478-7.981,0.81-11.102,3.86c-3.071,2.965-4.877,6.879-5.42,11.745
		c-0.623,5.574,0.651,10.181,3.823,13.818c2.462,2.843,5.471,4.462,9.024,4.858c4.139,0.463,7.801-0.84,10.985-3.907
		C417.854,893.413,419.665,889.557,420.193,884.828z"/>
	<path fill="#FFFFFF" d="M458.337,871.721l-8.139-0.571l-2.884,41.053l-8.594-0.604l2.884-41.053l-7.926-0.557l0.663-9.439
		L459,862.281L458.337,871.721z"/>
	<path fill="#FFFFFF" d="M494.396,914.452l-8.578-0.337l0.872-22.211l-15.027-0.59l-0.872,22.211l-8.608-0.338l1.985-50.577
		l8.609,0.338l-0.75,19.083l15.027,0.59l0.749-19.083l8.578,0.337L494.396,914.452z"/>
	<path fill="#FFFFFF" d="M512.362,914.704l-8.493-0.136l0.805-50.609l8.493,0.135L512.362,914.704z"/>
	<path fill="#FFFFFF" d="M546.568,914.743l-24.445,0.116l-0.241-50.616l24.446-0.116l0.045,9.394l-15.953,0.076l0.044,9.222
		l15.951-0.076l0.045,9.222l-15.952,0.076l0.063,13.351l15.951-0.076L546.568,914.743z"/>
	<path fill="#FFFFFF" d="M578.253,900.922c0.117,4.357-1.127,7.901-3.732,10.634c-2.488,2.614-5.689,3.975-9.605,4.08
		c-6.35,0.172-11.247-3.355-14.69-10.583l7.02-5.078c2.267,4.437,4.797,6.617,7.59,6.542c1.295-0.035,2.438-0.492,3.427-1.373
		c1.107-0.952,1.643-2.143,1.604-3.572c-0.041-1.498-0.835-3.126-2.382-4.883c-0.607-0.698-1.917-1.932-3.931-3.699
		c-3.758-3.291-6.317-5.767-7.68-7.426c-2.808-3.386-4.255-6.704-4.343-9.957c-0.101-3.711,1.064-6.825,3.493-9.344
		c2.311-2.423,5.129-3.68,8.456-3.77c4.483-0.121,8.868,2.479,13.153,7.803l-6.129,6.465c-2.3-3.449-4.593-5.143-6.879-5.081
		c-0.931,0.025-1.763,0.324-2.496,0.896c-0.832,0.667-1.234,1.507-1.207,2.519c0.023,0.851,0.298,1.648,0.824,2.394
		c0.737,1.039,2.872,3.156,6.404,6.352c3.386,3.053,5.403,4.937,6.051,5.653C576.459,893.053,578.143,896.863,578.253,900.922z"/>
	<path fill="#FFFFFF" d="M642.061,909.56l-18.407,1.622c-4.913,0.433-8.606,0.021-11.08-1.236
		c-3.348-1.688-5.249-5.114-5.704-10.282c-0.556-6.312,2.03-10.492,7.758-12.541c-2.239-0.446-4.142-1.683-5.705-3.709
		c-1.497-1.961-2.359-4.232-2.587-6.813c-0.398-4.521,0.728-8.177,3.379-10.965c2.407-2.536,5.675-3.986,9.804-4.35
		c4.312-0.38,7.857,0.517,10.639,2.689s4.241,4.037,4.378,5.591c0.059,0.663-0.432,1.575-1.47,2.737
		c-1.039,1.162-1.882,1.771-2.528,1.829c-0.425,0.037-1.788-0.804-4.089-2.524c-2.301-1.72-4.381-2.498-6.241-2.335
		c-1.921,0.17-3.427,0.887-4.517,2.15c-1.126,1.337-1.594,3.073-1.405,5.21c0.196,2.229,0.935,3.813,2.216,4.754
		c0.825,0.615,2.059,1.021,3.7,1.22c1.58,0.186,2.503,0.404,2.769,0.658c0.378,0.384,0.633,1.309,0.762,2.777
		c0.16,1.813,0.058,2.967-0.306,3.461c-0.364,0.494-1.4,0.99-3.108,1.487c-1.851,0.508-3.143,1.104-3.877,1.789
		c-1.207,1.094-1.71,2.791-1.507,5.093c0.255,2.895,1.498,4.634,3.729,5.218c1.043,0.275,3.222,0.268,6.538-0.025l8.733-0.769
		l-1.108-12.58c-1.819,0.16-3.015,0.115-3.587-0.135c-0.935-0.427-1.48-1.535-1.638-3.325c-0.158-1.79,0.093-3.002,0.752-3.639
		c0.508-0.484,1.604-0.801,3.286-0.949l7.904-0.696L642.061,909.56z"/>
	<path fill="#FFFFFF" d="M709.15,856.327l-4.63,7.454c-4.908-4-9.85-5.517-14.825-4.55c-4.219,0.819-7.446,3.127-9.684,6.922
		s-2.891,8.084-1.961,12.867c1.333,6.858,4.735,11.35,10.207,13.471c2.614,1.014,5.344,1.244,8.189,0.691
		c2.687-0.522,5.002-1.629,6.944-3.322c1.62-1.441,3.27-3.581,4.948-6.42l6.978,5.585c-2.381,3.921-4.795,6.867-7.244,8.839
		c-2.723,2.164-6.056,3.63-10,4.396c-6.834,1.328-12.9-0.018-18.198-4.035c-5.298-4.019-8.697-9.89-10.198-17.613
		c-1.969-10.134,0.409-18.377,7.134-24.731c3.231-3.058,6.978-5.002,11.241-5.83C695.762,848.553,702.795,850.646,709.15,856.327z"
		/>
	<path fill="#FFFFFF" d="M765.424,882.721l-8.426,2.636l-6.459-8.903l-17.453,5.461l-0.377,11.043l-8.425,2.637l1.346-53.458
		l8.246-2.58L765.424,882.721z M744.69,868.477l-10.883-14.875l-0.491,18.434L744.69,868.477z"/>
	<path fill="#FFFFFF" d="M785.867,848.373l-12.513,5.726l9.478,20.714l-7.695,3.521l-21.06-46.027l20.208-9.246l3.895,8.511
		l-12.513,5.726l3.851,8.417l12.513-5.726L785.867,848.373z"/>
	<path fill="#FFFFFF" d="M826.446,850.263l-20.626,13.12l-27.167-42.707l20.626-13.121l5.042,7.926l-13.46,8.563l4.95,7.78
		l13.459-8.562l4.95,7.781l-13.46,8.562l7.166,11.265l13.459-8.562L826.446,850.263z M789.769,792.888l-2.161,17.361l-5.035,3.202
		l-1.101-15.286L789.769,792.888z"/>
</g>
<g>
	<path fill="#ffffff" d="M336.685,265.424c1.836,14.048,3.515,27.555,5.05,40.506c1.528,12.958,3.055,25.989,4.59,39.101
		c0.61,7.185,1.147,14.282,1.606,21.306c0.459,7.024,0.99,14.129,1.607,21.307c0.918,12.804,1.836,25.448,2.754,37.93
		c0.918,12.49,1.678,25.133,2.295,37.93c0.609,13.111,0.99,26.304,1.147,39.569c0.15,13.272,0.38,26.458,0.688,39.569
		c0,18.109-0.459,36.058-1.377,53.852c-0.309,5.934-0.997,11.707-2.066,17.326c-1.076,5.619-2.984,11.085-5.738,16.39
		c-3.672,6.87-8.571,12.804-14.689,17.794c-3.371,3.125-6.506,6.483-9.411,10.068c-2.912,3.593-5.738,7.258-8.493,11.004
		c-8.571,10.932-18.52,21.233-29.838,30.906c-4.289-1.873-7.273-4.448-8.951-7.727c-1.686-3.277-3.292-6.79-4.82-10.536
		c-1.535-3.746-2.984-7.565-4.361-11.473c-1.377-3.899-2.984-7.727-4.82-11.473c-4.59-9.051-8.342-18.497-11.247-28.33
		c-2.912-9.834-4.519-20.056-4.82-30.672c-0.617-18.731-0.997-37.462-1.147-56.193c-0.158-18.73-0.538-37.461-1.147-56.192
		c-0.617-17.165-1.076-34.257-1.377-51.276c-0.308-17.012-0.767-33.95-1.377-50.808c-0.617-12.797-0.846-25.44-0.688-37.93
		c0.15-12.482-0.079-24.972-0.688-37.462c-0.617-13.111-1.377-26.223-2.295-39.335c-0.918-13.111-1.686-26.223-2.295-39.335
		c-0.609-9.987-0.839-19.74-0.688-29.267c0.158-9.52,0.38-19.272,0.688-29.267c0-5.305,0.229-10.536,0.688-15.688
		c0.459-5.151,0.839-10.375,1.148-15.687c0.301-4.99,1.987-9.438,5.049-13.346c3.056-3.9,6.728-6.863,11.018-8.897
		c4.282-2.026,8.873-2.963,13.771-2.81c4.892,0.161,9.332,1.639,13.313,4.449c3.364,2.188,6.427,4.375,9.181,6.556
		c2.754,2.188,4.892,4.998,6.427,8.429c5.508,11.868,12.624,22.323,21.346,31.374c8.722,9.059,17.365,18.263,25.937,27.628
		c12.236,13.111,23.942,26.384,35.118,39.803c11.167,13.426,21.497,27.628,30.986,42.613c11.017,17.172,21.876,34.184,32.593,51.042
		c10.709,16.858,21.726,33.716,33.052,50.574c10.709,16.236,21.647,32.311,32.822,48.232c11.168,15.921,22.565,31.842,34.2,47.764
		c6.427,9.058,13.313,17.641,20.657,25.755c7.345,8.122,14.531,16.39,21.575,24.819c0.302,0.314,0.688,0.548,1.147,0.702
		c0.459,0.161,0.99,0.395,1.606,0.703c2.446-0.622,3.744-1.712,3.902-3.278c0.15-1.559,0.229-3.117,0.229-4.683
		c-0.617-9.987-1.076-19.901-1.377-29.735c-0.309-9.833-0.768-19.74-1.377-29.735c-0.918-23.414-1.837-46.666-2.755-69.772
		c-0.918-23.099-1.686-46.359-2.295-69.772c-0.617-19.975-0.997-39.876-1.147-59.705c-0.158-19.821-0.538-39.723-1.147-59.705
		c-0.309-14.048-0.617-27.782-0.919-41.208c-0.308-13.419-0.459-27.16-0.459-41.208c0-8.114,0.84-15.995,2.525-23.648
		c1.678-7.646,4.512-15.526,8.492-23.647c4.591,2.188,7.954,4.997,10.1,8.429c2.137,3.439,3.822,7.185,5.049,11.239
		c0.918,2.81,1.528,5.78,1.837,8.897c0.301,3.124,0.76,6.087,1.377,8.897c5.2,21.855,8.643,43.864,10.328,66.026
		c1.679,22.169,3.443,44.486,5.279,66.963c2.138,25.287,4.203,50.654,6.197,76.094c1.987,25.448,4.203,50.969,6.656,76.563
		c0.918,9.366,2.217,18.731,3.902,28.097c1.678,9.365,2.826,18.892,3.442,28.564c1.528,19.667,3.135,39.262,4.82,58.768
		c1.679,19.514,1.298,39.262-1.147,59.236c-0.617,4.376-1.535,8.663-2.755,12.878c-1.227,4.215-2.604,8.51-4.131,12.877
		c-1.837,4.998-3.83,9.995-5.968,14.985c-2.145,4.997-4.289,10.302-6.427,15.921c-8.88-0.307-17.753-1.243-26.625-2.81
		c-8.88-1.559-16.375-6.709-22.494-15.453c-2.754-3.746-5.587-7.492-8.492-11.238c-2.912-3.746-5.738-7.492-8.492-11.238
		c-8.88-10.609-17.674-21.227-26.396-31.843c-8.722-10.609-17.373-21.379-25.937-32.311c-5.509-7.178-10.716-14.436-15.608-21.774
		c-4.899-7.332-9.949-14.75-15.149-22.243c-8.879-13.111-17.673-26.223-26.396-39.335c-8.722-13.111-17.372-26.377-25.936-39.803
		c-10.716-16.229-21.195-32.545-31.445-48.934c-10.257-16.39-20.585-32.853-30.986-49.403c-3.673-5.62-7.804-11.078-12.395-16.39
		C347.702,276.978,342.495,271.358,336.685,265.424z"/>
	<path fill="#ffffff" d="M837.046,297.267c0.918,1.565,2.065,2.422,3.442,2.575c1.378,0.161,2.826,0.549,4.361,1.171
		c11.936,4.997,23.333,10.697,34.199,17.092c10.859,6.402,20.887,14.129,30.068,23.18c7.954,8.122,14.991,16.938,21.116,26.458
		c6.118,9.526,11.318,19.748,15.607,30.672c4.591,10.931,8.034,21.936,10.329,33.013c2.295,11.084,4.361,22.557,6.197,34.418
		c1.836,13.426,3.364,26.772,4.591,40.037c1.219,13.272,1.678,26.772,1.377,40.505c0,11.239-1.377,22.009-4.132,32.312
		c-2.754,10.302-6.584,20.296-11.476,29.969c-12.854,25.602-30.757,46.827-53.71,63.686c-22.034,15.921-45.905,24.511-71.612,25.755
		c-22.952,0.937-44.836-2.181-65.644-9.365c-14.389-4.99-27.242-13.266-38.561-24.818c-1.535-1.559-2.912-3.117-4.132-4.683
		c-1.227-1.559-3.063-2.811-5.509-3.747c-0.616,2.503-0.997,4.764-1.147,6.79c-0.158,2.034-0.538,4.142-1.147,6.322
		c-0.309,1.565-0.768,2.89-1.377,3.98c-0.617,1.097-1.686,1.639-3.214,1.639c-1.535,0-4.06,0-7.574,0
		c-3.521,0-5.588-0.622-6.197-1.873c-2.453-5.619-4.21-11.473-5.279-17.561c-1.075-6.087-1.686-12.248-1.836-18.497
		c-0.158-6.241-0.079-12.481,0.229-18.73c0.302-6.241,0.459-12.482,0.459-18.73c-0.309-26.846-0.459-53.537-0.459-80.075
		c0-26.53-0.158-53.068-0.459-79.606c0-14.984-0.309-29.889-0.918-44.72c-0.617-14.824-0.768-29.735-0.459-44.72
		c0-10.924-0.229-21.848-0.688-32.779c-0.459-10.924-0.847-21.848-1.148-32.779c-0.918-27.467-2.754-54.473-5.508-81.011
		c-1.535-13.112-2.525-25.909-2.984-38.398c-0.459-12.482-0.079-25.287,1.147-38.398c0.61-4.368,0.84-8.663,0.688-12.877
		c-0.157-4.214-0.229-8.502-0.229-12.877c0.302-3.117,0.761-6.087,1.378-8.897c0.609-2.81,1.219-5.619,1.836-8.429
		c0.609-3.746,2.065-6.475,4.361-8.195c2.295-1.712,5.121-2.883,8.492-3.512c3.056-0.622,5.58-0.234,7.574,1.17
		c1.987,1.405,3.744,3.358,5.279,5.854c2.445,3.439,4.433,6.79,5.968,10.068c1.527,3.278,3.515,6.482,5.968,9.6
		c1.219,1.251,1.836,2.656,1.836,4.214c0,1.566,0,3.125,0,4.683c0.609,10.616,1.22,21.152,1.836,31.608
		c0.609,10.463,1.22,20.999,1.836,31.608c0.61,10.931,1.299,21.774,2.066,32.545c0.76,10.77,1.907,21.621,3.442,32.545
		c2.446-4.368,4.741-8.736,6.886-13.112c2.138-4.368,4.433-8.736,6.886-13.112c7.037-14.048,15.07-27.233,24.101-39.569
		c9.023-12.329,18.592-24.27,28.69-35.823c7.646-9.051,15.68-17.561,24.101-25.521c8.414-7.96,17.516-15.058,27.313-21.306
		c14.073-9.366,29.53-15.139,46.364-17.326c11.018-1.559,20.35,2.034,28.003,10.77c6.118,7.493,10.099,16.236,11.935,26.223
		c0.918,4.683,1.837,9.366,2.755,14.048s1.678,9.366,2.295,14.048c0.918,9.058,0.609,17.955-0.918,26.691
		c-1.535,8.744-3.83,17.326-6.886,25.755c-6.126,17.794-14.618,33.643-25.478,47.53c-10.866,13.895-23.49,26.619-37.872,38.164
		c-3.672,3.125-7.345,6.249-11.017,9.366c-3.673,3.124-7.653,5.934-11.936,8.429c-1.227,0.629-2.374,1.405-3.443,2.341
		C838.036,293.989,837.347,295.394,837.046,297.267z M901.772,495.814c0.301-24.657-1.837-49.791-6.427-75.392
		c-1.836-10.609-4.82-20.677-8.952-30.204c-4.131-9.519-10.178-18.029-18.132-25.521c-17.143-15.607-36.266-25.909-57.382-30.906
		c-5.207-1.244-10.559-1.946-16.066-2.107c-5.509-0.154-10.867,0.702-16.067,2.575c-5.509,2.188-11.096,3.827-16.755,4.917
		c-5.667,1.098-11.405,1.954-17.215,2.576c-4.289,0.629-6.886,1.332-7.804,2.107c-0.918,0.783-1.837,3.358-2.755,7.727
		c-1.534,7.185-2.295,14.282-2.295,21.307c0,7.024,0,14.128,0,21.306c0,6.871,0,13.661,0,20.37c0,6.717-0.158,13.507-0.459,20.37
		c-0.309,10.302-0.847,20.531-1.606,30.672c-0.768,10.148-1.147,20.216-1.147,30.204c0,8.122-0.309,16.236-0.919,24.35
		c-0.616,8.122-1.377,16.236-2.295,24.35c-0.918,10.303,0.15,19.748,3.214,28.331c3.055,8.59,8.722,16.155,16.984,22.711
		c14.073,11.238,28.69,18.658,43.84,22.243c15.148,3.593,31.287,2.268,48.43-3.98c17.444-6.241,31.366-15.606,41.773-28.097
		c10.4-12.482,17.136-28.25,20.198-47.295c0.919-7.178,1.378-14.282,1.378-21.306C901.313,510.097,901.464,503,901.772,495.814z
		 M888.001,106.68c-17.143,7.493-31.833,17.641-44.069,30.438c-18.362,20.604-34.967,42.225-49.808,64.856
		c-14.847,22.638-28.081,46.593-39.708,71.88c-0.616,1.565-1.305,3.358-2.065,5.385c-0.768,2.034-1.306,4.61-1.606,7.727
		c3.974-4.368,7.954-7.96,11.936-10.77c3.974-2.81,7.804-5.62,11.476-8.429c6.119-4.368,12.237-8.816,18.362-13.346
		c6.118-4.521,11.936-9.438,17.444-14.75c5.81-5.619,11.318-11.312,16.525-17.092c5.2-5.772,10.4-11.78,15.608-18.028
		C865.966,177.082,881.266,144.457,888.001,106.68z"/>
</g>
</svg>
