<?xml version="1.0" encoding="utf-8"?>
<!-- Generator: Adobe Illustrator 17.0.0, SVG Export Plug-In . SVG Version: 6.00 Build 0)  -->
<!DOCTYPE svg PUBLIC "-//W3C//DTD SVG 1.1//EN" "http://www.w3.org/Graphics/SVG/1.1/DTD/svg11.dtd">
<svg version="1.1" id="Capa_1" xmlns="http://www.w3.org/2000/svg" xmlns:xlink="http://www.w3.org/1999/xlink" x="0px" y="0px"
	 width="1080px" height="1080px" viewBox="0 0 1080 1080" enable-background="new 0 0 1080 1080" xml:space="preserve">
<path fill-rule="evenodd" clip-rule="evenodd" fill="#4C3F30" d="M972.647,498.78c0-226.86-184.036-410.769-411.054-410.769
	c-227.022,0-411.056,183.909-411.056,410.769c0,144.304,74.475,271.211,187.099,344.48c31.76-27.044,64.294-54.809,108.189-62.124
	c83.76-13.087,157.048-2.617,240.807,15.705c54.921,10.562,108.135,10.879,159.641-1.769
	C924.163,720.32,972.647,615.212,972.647,498.78z"/>
<path fill-rule="evenodd" clip-rule="evenodd" fill="#798643" d="M834.54,865.075c0-7.521,0.02-13.866-0.02-20.21
	c-0.005-1.483,0.936-2.254,1.948-3.139c6.861-6.027,13.875-11.912,20.469-18.195c13.829-13.179,26.691-27.192,38.695-41.925
	c12.31-15.097,23.496-30.939,33.608-47.432c11.308-18.455,21.216-37.637,29.534-57.498c14.999-35.812,25.28-72.824,30.52-111.125
	c3.574-26.114,5.077-52.309,4.085-78.611c-1.094-28.992-4.857-57.691-11.584-85.997c-6.079-25.612-14.248-50.586-24.933-74.813
	c-6.39-14.498-13.404-28.68-21.344-42.468c-9.013-15.659-18.823-30.791-29.845-45.244c-7.418-9.729-15.066-19.237-23.235-28.404
	c-9.222-10.347-18.9-20.224-29.089-29.723c-10.818-10.086-22.121-19.56-33.925-28.572c-14.233-10.869-29.212-20.572-44.671-29.764
	c-8.323-4.949-17.187-8.768-25.546-13.512c-11.39-6.452-23.925-10.337-35.857-15.551c-14.764-6.457-30.403-9.984-45.811-14.401
	c-39.83-11.421-80.672-14.089-121.889-13.041c-27.668,0.711-55.191,3.757-81.956,10.536c-16.385,4.151-33.03,7.996-48.625,14.478
	c-11.224,4.663-23,8.226-33.667,13.977c-9.527,5.143-19.81,8.982-28.864,14.8c-7.369,4.734-15.293,8.588-22.494,13.522
	c-13.926,9.555-27.857,19.151-40.73,29.963c-10.986,9.233-21.793,18.757-31.768,28.966c-15.546,15.909-30.07,32.677-43.122,50.591
	c-13.836,18.992-26.103,38.822-36.737,59.594c-18.343,35.842-31.333,73.376-39.262,112.536
	c-7.001,34.574-9.943,69.459-8.683,104.637c0.959,26.706,4.184,53.178,9.915,79.368c6.666,30.464,16.283,60.003,29.373,88.524
	c6.672,14.534,13.995,28.726,22.231,42.519c9.187,15.383,19.191,30.214,30.3,44.41c7.719,9.872,15.81,19.401,24.268,28.7
	c9.427,10.363,19.496,20.066,29.892,29.529c11.267,10.26,23.174,19.708,35.576,28.67c4.223,3.052,8.118,6.53,12.806,8.968
	c9.279,4.826,20.117,1.605,25.97-6.836c7.996-11.528,15.986-23.215,26.906-32.483c16.727-14.187,36.979-20.536,58.743-24.135
	c19.731-3.272,39.472-3.302,59.316-3.2c10.552,0.056,21.103,0.281,31.645-0.726c6.431-0.614,7.704,1.309,4.862,6.83
	c-5.24,10.178-9.811,20.628-14.238,31.139c-0.578,1.37-1.753,2.709-0.961,4.928c2.664-3.241,5.434-6.022,7.474-9.223
	c3.942-6.206,9.238-11.38,13.696-17.187c2.163-2.822,5.659-4.039,9.202-4.821c11.456-2.531,23.097-3.936,34.781-4.949
	c13.757-1.186,27.54-2.117,41.313-3.124c1.426-0.107,3.405-0.695,4.028,0.859c0.644,1.61-1.329,2.316-2.459,3.134
	c-12.285,8.942-21.037,20.587-28.159,33.485c-0.48,0.859-1.201,1.667-0.404,3.016c4.621-4.044,9.422-7.811,13.629-12.111
	c2.06-2.106,4.315-3.829,6.702-5.424c14.989-10,30.975-17.249,49.942-15.536c10.291,0.93,20.219,2.909,30.045,6.528
	c15.05,5.542,30.377,10.48,46.419,13.231c5.997,1.028,11.871,1.702,17.898,1.621c9.084-0.118-25.321,39.534-16.712,37.27
	c16.441-4.33,68.479-39.862,69.537-23.15c1.227,19.397-3.149,37.761-11.646,55.326c-8.256,17.075-19.8,31.701-34.492,44.293
	c-14.003,11.999-29.646,21.257-46.358,29.375c-13.573,6.595-27.867,10.874-42.237,15.173c-6.845,2.05-7.081,1.881-9.989-4.591
	c-6.216-13.834-13.389-27.131-23.92-38.511c-1.16-1.247-2.617-2.244-3.992-3.41c-1.161,1.559-0.108,2.653,0.281,3.747
	c4.069,11.477,5.49,23.501,8.041,35.285c0.813,3.747,1.81,7.469,2.955,11.135c0.654,2.106-0.066,3.19-2.009,3.987
	c-16.809,6.953-33.306,14.555-50.78,20.102c-12.229,3.88-24.37,7.648-37.179,9.264c-16.175,2.04-32.32,1.227-48.429-0.511
	c-11.068-1.196-22.117-2.75-32.873-5.527c-5.082-1.314-10.107-2.842-15.268-3.89c-3.53-0.716-4.593-2.95-4.823-6.176
	c-0.971-13.588-1.789-27.218-5.23-40.504c-1.467-5.654-3.154-11.293-6.38-16.436c-0.987,6.503-0.895,12.975-1.572,19.401
	c-1.125,10.659-4.251,20.863-6.894,31.19c-0.642,2.51-2.019,3.139-4.1,1.861c-9.422-5.802-20.423-8.149-30.336-12.816
	c-10.327-4.857-21.098-8.987-30.738-15.056c-22.514-14.171-36.386-34.109-39.464-59.675c-2.203-18.327-10.618-31.614-26.548-41.87
	c-13.826-8.895-26.62-19.315-38.943-30.077c-10.468-9.146-20.511-18.787-30.134-28.746c-13.251-13.711-25.518-28.266-36.862-43.475
	c-10.493-14.064-20.273-28.618-28.915-43.782c-17.41-30.546-31.53-62.426-41.535-95.937c-8.077-27.054-13.69-54.522-16.913-82.497
	c-2.79-24.217-3.285-48.474-2.419-72.763c0.985-27.714,4.793-55.119,10.955-82.224c6.978-30.679,16.906-60.432,30.206-89.168
	c6.475-13.987,13.522-27.678,21.4-41c9.56-16.165,20.01-31.742,31.637-46.634c7.088-9.069,14.322-17.985,22.072-26.563
	c9.874-10.925,20.219-21.359,31.088-31.389c10.756-9.918,22.003-19.212,33.692-28.107c14.486-11.022,29.705-20.909,45.453-30.203
	c8.2-4.836,16.891-8.691,25.114-13.374c11.505-6.554,24.145-10.582,36.174-15.945c13.757-6.13,28.363-9.585,42.71-13.931
	c45.762-13.854,92.827-16.712,140.338-15.051c29.145,1.023,58.07,4.8,86.167,12.326c15.603,4.182,31.481,8.047,46.317,14.391
	c11.186,4.785,22.964,8.389,33.608,14.181c9.381,5.107,19.503,8.942,28.419,14.708c7.479,4.836,15.541,8.747,22.877,13.752
	c13.711,9.35,27.356,18.839,40.142,29.308c10.756,8.809,21.088,18.154,31.001,27.821c14.294,13.941,27.621,28.761,39.85,44.395
	c10.991,14.049,21.272,28.608,30.474,43.802c19.672,32.478,35.219,66.694,46.348,102.69c8.931,28.9,15.02,58.387,17.985,88.375
	c3.277,33.158,3.211,66.342-0.363,99.531c-3.911,36.271-12.136,71.587-24.396,106.059c-4.672,13.133-10.097,26.011-16.109,38.659
	c-9.938,20.919-21.201,41.123-34.349,60.391c-6.477,9.493-13.195,18.787-20.301,27.857c-12.438,15.884-25.955,30.832-40.576,44.921
	c-10.107,9.744-20.311,19.35-31.594,27.857C838.344,861.383,836.984,862.84,834.54,865.075z"/>
<path fill-rule="evenodd" clip-rule="evenodd" fill="#66594B" d="M253.935,702.284c-7.725-8.216-12.512-18.159-17.645-27.852
	c-12.252-23.143-20.191-47.733-25.255-73.121c-2.518-12.617-3.891-25.428-4.632-38.327c-1.117-19.452-0.179-38.715,3.057-57.912
	c0.064-0.378,0.304-0.721,0.951-2.188c-0.345,7.934,0.629,14.652,1.135,21.4c1.12,14.81,2.738,29.569,4.859,44.293
	c2.546,17.668,5.93,35.162,10.406,52.452c6.764,26.129,15.375,51.711,25.998,76.658c0.608,1.421,0.854,2.981,1.265,4.479
	L253.935,702.284z"/>
<path fill-rule="evenodd" clip-rule="evenodd" fill="#66594B" d="M743.746,198.451c7.52,2.214,14.718,5.036,20.935,9.826
	c1.483,1.14,3.333,1.84,4.954,2.832c12.648,7.72,23.844,16.993,34.436,27.208c8.077,7.786,15.209,16.165,21.916,24.917
	c3.926,5.122,7.055,10.807,10.496,16.267c0.583,0.931,1.37,1.948,0.118,3.548c-4.867-5.777-11.273-9.862-16.467-15.209
	c-2.214-2.28-4.453-4.55-6.866-6.626c-8.471-7.285-16.63-14.897-24.846-22.412c-13.036-11.927-26.972-22.888-39.753-35.055
	c-1.738-1.656-4.565-2.326-5.138-5.061L743.746,198.451z"/>
<path fill-rule="evenodd" clip-rule="evenodd" fill="#66594B" d="M378.575,199.402c-6.991,7.316-14.89,13.696-22.581,20.306
	c-11.439,9.826-22.916,19.636-33.841,29.973c-10.521,9.959-21.027,19.928-31.926,29.508c-1.257,1.104-2.29,2.449-3.527,3.788
	c-1.544-1.426-0.634-2.541-0.033-3.543c4.875-8.118,10.173-15.94,16.006-23.496c10.012-12.97,22.538-23.506,34.889-34.227
	c3.052-2.653,6.623-4.826,10.173-6.876c7.837-4.524,14.946-10.235,23.667-13.328c2.344-0.833,4.502-2.224,7.15-2.127
	L378.575,199.402z"/>
<path fill-rule="evenodd" clip-rule="evenodd" fill="#AA8BB3" d="M252.77,673.615c0.716,0.409,0.854,1.022,0.649,1.738
	c-0.031,0.102-0.22,0.164-0.335,0.24c-0.151-0.624-0.304-1.242-0.458-1.866L252.77,673.615z"/>
<g>
	<path fill="#FFFFFF" d="M249.128,373.159c0.548,4.195,1.05,8.229,1.508,12.096c0.456,3.87,0.912,7.761,1.371,11.676
		c0.182,2.146,0.343,4.265,0.48,6.363c0.137,2.097,0.295,4.219,0.479,6.362c0.274,3.823,0.548,7.599,0.823,11.326
		c0.274,3.729,0.501,7.505,0.685,11.327c0.182,3.915,0.296,7.854,0.343,11.815c0.045,3.963,0.114,7.901,0.206,11.816
		c0,5.408-0.137,10.767-0.411,16.081c-0.092,1.771-0.298,3.496-0.617,5.174c-0.321,1.678-0.891,3.31-1.714,4.894
		c-1.096,2.051-2.559,3.823-4.386,5.313c-1.007,0.933-1.943,1.936-2.81,3.006c-0.87,1.073-1.713,2.167-2.536,3.286
		c-2.56,3.264-5.53,6.34-8.91,9.229c-1.281-0.56-2.172-1.329-2.673-2.307c-0.503-0.979-0.983-2.028-1.439-3.146
		c-0.458-1.119-0.891-2.259-1.302-3.426c-0.411-1.165-0.891-2.307-1.439-3.426c-1.371-2.703-2.491-5.523-3.358-8.46
		c-0.87-2.937-1.349-5.989-1.439-9.159c-0.184-5.593-0.297-11.187-0.342-16.78c-0.047-5.593-0.161-11.187-0.343-16.78
		c-0.184-5.126-0.321-10.229-0.411-15.312c-0.092-5.08-0.229-10.138-0.412-15.172c-0.184-3.821-0.252-7.597-0.206-11.327
		c0.045-3.727-0.023-7.457-0.206-11.187c-0.184-3.915-0.411-7.831-0.686-11.746c-0.274-3.916-0.503-7.831-0.685-11.746
		c-0.182-2.982-0.25-5.895-0.206-8.74c0.047-2.842,0.113-5.755,0.206-8.739c0-1.584,0.068-3.146,0.206-4.685
		c0.137-1.538,0.25-3.098,0.343-4.684c0.09-1.49,0.593-2.819,1.508-3.985c0.912-1.165,2.009-2.049,3.29-2.657
		c1.278-0.605,2.649-0.885,4.112-0.839c1.46,0.048,2.787,0.489,3.975,1.328c1.004,0.653,1.919,1.307,2.742,1.958
		c0.822,0.653,1.46,1.493,1.919,2.517c1.645,3.544,3.77,6.666,6.374,9.369c2.604,2.705,5.186,5.454,7.745,8.25
		c3.654,3.915,7.149,7.878,10.486,11.886c3.335,4.009,6.419,8.25,9.253,12.725c3.29,5.128,6.533,10.208,9.733,15.242
		c3.198,5.034,6.487,10.068,9.87,15.102c3.198,4.848,6.464,9.648,9.801,14.402c3.334,4.754,6.738,9.509,10.212,14.263
		c1.919,2.705,3.976,5.268,6.169,7.69c2.193,2.425,4.339,4.895,6.442,7.411c0.09,0.094,0.206,0.164,0.343,0.21
		c0.137,0.048,0.295,0.118,0.48,0.209c0.73-0.186,1.118-0.511,1.165-0.979c0.045-0.465,0.068-0.931,0.068-1.398
		c-0.184-2.982-0.321-5.943-0.411-8.879c-0.092-2.937-0.229-5.895-0.411-8.879c-0.274-6.992-0.548-13.935-0.822-20.835
		c-0.274-6.897-0.503-13.843-0.686-20.835c-0.184-5.965-0.298-11.908-0.343-17.829c-0.047-5.919-0.161-11.862-0.343-17.829
		c-0.092-4.195-0.184-8.296-0.274-12.305c-0.092-4.007-0.137-8.11-0.137-12.305c0-2.423,0.25-4.776,0.754-7.062
		c0.501-2.283,1.347-4.636,2.536-7.062c1.371,0.653,2.375,1.492,3.016,2.517c0.638,1.027,1.142,2.146,1.508,3.356
		c0.274,0.839,0.456,1.726,0.548,2.657c0.09,0.933,0.227,1.818,0.411,2.657c1.553,6.526,2.581,13.098,3.084,19.716
		c0.501,6.62,1.028,13.284,1.576,19.996c0.638,7.551,1.255,15.126,1.851,22.723c0.593,7.599,1.255,15.22,1.988,22.863
		c0.274,2.796,0.662,5.593,1.165,8.39c0.501,2.797,0.844,5.642,1.028,8.53c0.456,5.873,0.936,11.724,1.439,17.549
		c0.501,5.827,0.388,11.724-0.342,17.689c-0.185,1.307-0.458,2.587-0.823,3.845c-0.366,1.259-0.777,2.541-1.233,3.846
		c-0.548,1.492-1.144,2.984-1.782,4.475c-0.641,1.492-1.281,3.076-1.919,4.754c-2.652-0.092-5.301-0.372-7.951-0.839
		c-2.652-0.465-4.89-2.003-6.717-4.614c-0.823-1.119-1.668-2.237-2.536-3.356c-0.87-1.119-1.713-2.237-2.536-3.356
		c-2.651-3.168-5.277-6.338-7.882-9.509c-2.604-3.168-5.188-6.384-7.745-9.648c-1.645-2.143-3.2-4.311-4.661-6.502
		c-1.463-2.189-2.971-4.405-4.523-6.642c-2.652-3.916-5.278-7.831-7.882-11.746c-2.604-3.915-5.188-7.876-7.745-11.886
		c-3.2-4.846-6.329-9.718-9.39-14.612c-3.063-4.894-6.147-9.81-9.253-14.752c-1.096-1.678-2.33-3.308-3.701-4.894
		C252.418,376.609,250.863,374.931,249.128,373.159z"/>
	<path fill="#FFFFFF" d="M444.601,502.644c-1.007,0.092-2.011-0.046-3.016-0.419c-0.823-0.186-1.714-0.56-2.673-1.119
		c-0.959-0.56-1.851-1.35-2.673-2.377c-2.742-4.007-4.845-8.25-6.306-12.725c-1.463-4.475-2.742-9.089-3.838-13.843
		c-0.64-2.889-1.188-5.779-1.645-8.669c-0.458-2.889-0.822-5.825-1.096-8.81c-0.458-4.475-0.938-8.879-1.439-13.214
		c-0.503-4.334-0.983-8.739-1.439-13.214c-0.092-1.21-0.161-2.423-0.206-3.636c-0.047-1.21-0.161-2.517-0.343-3.916
		c-0.822,1.027-1.531,1.982-2.125,2.867c-0.596,0.887-1.075,1.842-1.439,2.867c-1.645,4.475-3.542,8.833-5.689,13.074
		c-2.148,4.243-4.318,8.508-6.511,12.795c-1.006,1.771-1.874,3.565-2.604,5.383c-0.732,1.818-1.6,3.614-2.604,5.383
		c-0.732,1.307-1.508,2.541-2.33,3.706c-0.823,1.167-1.645,2.308-2.468,3.426c-2.011,2.517-4.112,4.872-6.305,7.062
		c-2.193,2.191-4.753,3.985-7.677,5.383c-4.571,2.425-9.414,3.404-14.53,2.937c-2.377-0.186-4.455-0.931-6.237-2.237
		c-1.782-1.304-3.358-2.937-4.729-4.894c-1.463-1.958-2.536-4.055-3.221-6.292c-0.686-2.237-1.166-4.566-1.439-6.992
		c-0.638-4.475-0.754-8.925-0.343-13.354c0.411-4.426,1.073-8.879,1.988-13.354c0.73-3.262,1.529-6.454,2.399-9.579
		c0.867-3.122,2.078-6.174,3.632-9.159c3.564-6.992,8.225-13.284,13.982-18.877c3.472-3.356,7.081-6.432,10.83-9.229
		c3.746-2.796,7.813-5.266,12.2-7.411c4.387-2.143,8.794-3.915,13.229-5.313c4.431-1.398,8.979-2.469,13.639-3.216
		c0.274,0,0.501-0.046,0.686-0.14c0.182-0.092,0.364-0.14,0.548-0.14c0.73-2.329,1.416-4.545,2.056-6.642
		c0.638-2.098,1.324-4.217,2.056-6.363c0.274-1.024,0.844-1.748,1.713-2.167c0.868-0.419,1.94-0.536,3.221-0.35
		c2.283,0.188,3.997,1.143,5.141,2.866c1.142,1.726,1.803,3.38,1.988,4.964c0.456,2.146,0.617,4.334,0.479,6.572
		c-0.137,2.238-0.297,4.429-0.479,6.572c-0.274,5.501-0.503,10.977-0.686,16.43c-0.184,5.454-0.047,10.931,0.411,16.431
		c0.548,6.9,1.347,13.682,2.399,20.345c1.049,6.666,2.307,13.354,3.77,20.066c0.823,4.009,1.735,7.995,2.742,11.956
		c1.004,3.963,2.009,7.9,3.016,11.815c0.548,2.237,1.166,4.429,1.851,6.572c0.686,2.146,1.393,4.335,2.125,6.572
		c0.09,0.374,0.227,1.027,0.411,1.958c0.182,1.307,0.045,2.355-0.411,3.146c-0.458,0.793-1.144,1.656-2.056,2.587
		c-0.733,0.748-1.532,1.329-2.399,1.748c-0.87,0.419-1.713,0.817-2.536,1.188C446.61,502.039,445.605,502.364,444.601,502.644z
		 M378.803,468.245h0.686c0.548-0.186,0.959-0.371,1.233-0.559c5.117-3.076,9.092-7.317,11.926-12.725
		c0.823-1.584,1.577-3.168,2.262-4.754c0.685-1.584,1.439-3.168,2.262-4.754c1.553-2.982,3.221-5.873,5.003-8.669
		c1.782-2.797,3.221-5.825,4.318-9.089c0.913-2.517,1.964-4.986,3.153-7.411c1.187-2.423,2.283-4.846,3.29-7.271
		c1.278-3.168,2.557-6.338,3.838-9.509c1.279-3.168,2.375-6.384,3.29-9.648c0.274-1.024,0.501-2.049,0.686-3.076
		c0.182-1.025,0.137-2.144-0.137-3.356c-1.007,0.188-1.943,0.443-2.81,0.769c-0.87,0.328-1.714,0.723-2.536,1.188
		c-3.29,1.678-6.511,3.45-9.664,5.313c-3.153,1.866-6.192,3.916-9.116,6.153c-2.377,1.866-4.616,3.799-6.717,5.803
		c-2.104,2.005-3.793,4.359-5.072,7.062c-0.548,1.212-1.121,2.401-1.714,3.565c-0.595,1.167-1.12,2.355-1.576,3.566
		c-0.732,1.958-1.439,3.939-2.125,5.943c-0.685,2.006-1.257,4.033-1.713,6.083c-0.458,1.772-0.777,3.566-0.959,5.384
		c-0.184,1.818-0.366,3.66-0.548,5.523c-0.366,3.076-0.527,6.152-0.479,9.229c0.045,3.077,0.342,6.153,0.891,9.229
		c0.182,1.027,0.433,2.076,0.754,3.146C377.546,466.451,378.071,467.406,378.803,468.245z"/>
	<path fill="#FFFFFF" d="M508.752,342.955c-0.458-0.092-1.075-0.186-1.851-0.28c-0.777-0.091-1.394-0.14-1.851-0.14h-20.425
		c-1.555,0-3.131,0.07-4.729,0.21c-1.6,0.14-3.221,0.164-4.866,0.07c-0.823,0-1.668-0.092-2.536-0.28
		c-0.87-0.186-1.713-0.419-2.536-0.699c-0.732-0.28-1.417-0.629-2.056-1.049c-0.64-0.419-1.326-0.815-2.056-1.188
		c0.274-2.049,1.461-3.216,3.564-3.496c2.468-0.28,4.935-0.536,7.402-0.769c2.468-0.232,4.888-0.49,7.265-0.769
		c3.928-0.372,7.813-0.651,11.652-0.839c3.838-0.186,7.676-0.186,11.515,0c0.182,0,0.548-0.021,1.097-0.07
		c0.548-0.046,0.913-0.116,1.097-0.209c0.182-1.305,0.364-2.609,0.548-3.916c0.182-1.304,0.364-2.609,0.548-3.915
		c0.456-2.703,0.891-5.196,1.302-7.481c0.411-2.283,0.844-4.776,1.302-7.481c0.182-1.398,0.411-2.796,0.685-4.195
		c0.274-1.398,0.501-2.797,0.686-4.195v-1.259c-0.274-3.636,1.187-5.873,4.387-6.712c1.553-0.465,3.084-0.721,4.592-0.769
		c1.508-0.046,2.9,0.538,4.181,1.748c1.097,0.933,1.988,1.958,2.673,3.076c0.686,1.119,0.891,2.517,0.617,4.195
		c-0.185,1.307-0.253,2.657-0.206,4.055c0.045,1.398,0.068,2.751,0.068,4.055c0,2.797-0.161,5.432-0.48,7.901
		c-0.321,2.471-0.479,5.104-0.479,7.9v6.572c1.097,0,2.193,0,3.29,0c1.097,0,2.193,0.048,3.29,0.14c4.112,0,8.178,0.164,12.2,0.489
		c4.021,0.328,8.041,1.003,12.063,2.028c0.912,0.188,1.805,0.467,2.674,0.839c0.867,0.374,1.758,0.747,2.672,1.119
		c0.275,0.188,0.525,0.397,0.754,0.629c0.229,0.233,0.525,0.443,0.893,0.629c-0.916,1.027-1.852,1.632-2.811,1.818
		c-0.959,0.188-1.943,0.28-2.947,0.28c-2.104,0.094-4.136,0.118-6.1,0.07c-1.967-0.046-3.999,0.024-6.101,0.21
		c-3.016,0.188-6.01,0.397-8.979,0.629c-2.971,0.234-5.963,0.444-8.979,0.629c-0.274,0.094-0.548,0.164-0.822,0.21
		c-0.274,0.048-0.641,0.164-1.097,0.35c0,0.559,0,1.608,0,3.146s-0.024,3.38-0.069,5.523c-0.047,2.146-0.068,4.405-0.068,6.782
		c0,2.377-0.023,4.639-0.068,6.782c-0.047,2.146-0.069,3.985-0.069,5.523s0,2.587,0,3.146v19.576c0,2.237,0.045,5.502,0.137,9.789
		c0.09,4.289,0.206,9.137,0.343,14.542c0.137,5.408,0.295,11.047,0.479,16.919c0.182,5.873,0.433,11.491,0.754,16.85
		c0.319,5.362,0.639,10.208,0.96,14.542c0.319,4.335,0.707,7.575,1.165,9.718c0.638,3.356,1.347,6.712,2.125,10.068
		c0.775,3.356,1.759,6.666,2.947,9.928c0.182,0.559,0.319,1.143,0.411,1.748c0.09,0.607,0.227,1.188,0.412,1.748
		c0.274,0.748,0.548,1.468,0.822,2.167c0.274,0.699,0.593,1.375,0.96,2.028c0.73,1.304,1.439,2.563,2.125,3.775
		c0.685,1.21,1.392,2.469,2.124,3.775c0.639,1.119,0.754,2.073,0.343,2.867c-0.411,0.791-1.257,1.374-2.536,1.748
		c-2.285,0.465-4.455,0.536-6.511,0.21c-2.056-0.328-4.136-0.863-6.237-1.608c-3.2-1.027-5.873-2.587-8.019-4.685
		c-2.148-2.098-4.044-4.639-5.689-7.621c-2.467-4.566-4.365-9.25-5.689-14.053c-1.326-4.8-2.491-9.718-3.496-14.752
		c-0.274-1.304-0.503-3.658-0.685-7.062c-0.184-3.402-0.343-7.341-0.48-11.816s-0.252-9.229-0.343-14.263
		c-0.092-5.034-0.184-9.789-0.274-14.263c-0.092-4.475-0.137-8.412-0.137-11.815c0-3.402,0-5.755,0-7.062
		c0.09-3.542,0.137-7.014,0.137-10.417c0-3.402,0.09-6.828,0.274-10.278c0.09-1.119,0.206-2.772,0.343-4.964
		c0.137-2.189,0.296-4.66,0.48-7.411c0.182-2.749,0.364-5.615,0.548-8.6c0.182-2.982,0.364-5.849,0.548-8.6
		c0.182-2.749,0.343-5.22,0.479-7.411c0.137-2.189,0.251-3.845,0.343-4.964V342.955z"/>
	<path fill="#FFFFFF" d="M625.544,410.075c-0.459,1.027-0.892,2.052-1.303,3.076c-0.411,1.027-0.801,2.052-1.165,3.076
		c-1.281,4.195-2.515,8.414-3.701,12.655c-1.188,4.243-2.422,8.46-3.701,12.655c-0.822,2.611-1.6,5.244-2.33,7.9
		c-0.732,2.657-1.646,5.244-2.742,7.761c-1.188,2.425-2.604,4.568-4.249,6.432c-1.645,1.866-3.701,3.31-6.169,4.335
		c-0.458,0.188-0.891,0.467-1.302,0.839c-0.411,0.374-0.846,0.699-1.303,0.979c-1.555,0.933-3.084,1.656-4.592,2.167
		c-1.508,0.514-3.177,0.629-5.003,0.35c-3.016-0.559-5.483-1.958-7.402-4.195c-1.556-1.864-2.879-3.867-3.976-6.013
		c-1.097-2.144-2.011-4.427-2.741-6.852c-1.097-3.635-1.92-7.293-2.468-10.977c-0.548-3.682-0.96-7.433-1.233-11.256
		c-0.274-3.356-0.549-6.734-0.823-10.138c-0.273-3.402-0.458-6.782-0.548-10.138c-0.09-3.542-0.045-7.083,0.137-10.627
		c0.183-3.542,0.364-7.083,0.549-10.627c0.182-4.195,0.456-8.32,0.822-12.375c0.364-4.055,0.686-8.18,0.96-12.375
		c0.182-1.584,0.73-3.122,1.645-4.614c0.912-1.49,2.283-2.423,4.112-2.797c0.639-0.186,1.255-0.371,1.851-0.559
		c0.594-0.186,1.21-0.372,1.851-0.56c3.198-0.371,5.528,0.933,6.991,3.916c0.638,1.212,1.187,2.447,1.645,3.706
		c0.456,1.258,0.686,2.635,0.686,4.125c-0.092,1.772,0.068,3.52,0.479,5.244c0.412,1.726,0.707,3.474,0.892,5.244
		c0.182,1.307,0.319,2.657,0.411,4.055c0.09,1.398,0.182,2.751,0.274,4.055c0.182,3.915,0.343,7.809,0.479,11.676
		c0.137,3.87,0.296,7.761,0.479,11.676c0.183,2.425,0.296,4.778,0.343,7.062c0.045,2.285,0.159,4.638,0.343,7.062
		c0.09,1.866,0.158,3.775,0.206,5.733c0.045,1.958,0.205,3.916,0.479,5.873c0.364,2.705,0.501,5.408,0.411,8.11
		c-0.092,2.705,0.228,5.408,0.96,8.11c0.273,1.398,0.73,2.657,1.37,3.775c0.73,1.398,1.553,1.398,2.468,0
		c0.548-0.931,1.073-1.864,1.576-2.797c0.501-0.931,0.892-1.91,1.165-2.937c0.73-2.982,1.439-5.943,2.125-8.879
		c0.686-2.936,1.393-5.895,2.125-8.879c1.004-3.822,1.964-7.597,2.879-11.327c0.912-3.728,1.919-7.457,3.016-11.187
		c0.822-2.517,1.758-4.964,2.81-7.341c1.05-2.377,2.078-4.776,3.085-7.201c0.456-1.21,0.98-2.377,1.576-3.496
		c0.593-1.119,1.118-2.283,1.576-3.496c2.009-4.94,4.843-9.601,8.499-13.983c0.638-0.651,1.187-1.49,1.645-2.517
		c1.097-2.609,3.016-3.916,5.758-3.916c1.37,0,2.741,0,4.112,0s2.741,0.048,4.112,0.14c1.278,0.094,2.146,0.374,2.604,0.839
		c0.456,0.467,0.867,1.307,1.233,2.517c0.364,1.307,0.525,2.565,0.48,3.776c-0.048,1.212-0.069,2.471-0.069,3.775
		c0,2.051,0.09,4.103,0.274,6.152c0.183,2.052,0.183,4.149,0,6.292c-0.185,4.195-0.458,8.39-0.822,12.585
		c-0.366,4.195-0.686,8.39-0.96,12.585c-0.184,2.797-0.321,5.617-0.411,8.46c-0.092,2.845-0.229,5.663-0.411,8.46
		c-0.092,1.866-0.185,3.729-0.274,5.593c-0.092,1.866-0.184,3.729-0.273,5.593c-0.093,1.772-0.185,3.544-0.274,5.313
		c-0.092,1.772-0.092,3.544,0,5.313c0.09,3.077,0.227,6.177,0.411,9.299c0.182,3.125,0.364,6.271,0.548,9.439
		c0,1.027,0.045,2.005,0.138,2.937c0.09,0.933,0.274,1.912,0.548,2.937c0.456,1.492,0.662,2.936,0.617,4.334
		c-0.047,1.398-0.115,2.845-0.206,4.335c-0.092,0.467-0.184,0.957-0.273,1.468c-0.093,0.513-0.366,1.003-0.823,1.468
		c-0.458,0.467-0.869,1.049-1.233,1.748c-0.366,0.699-0.777,1.377-1.233,2.028c-0.185,0.188-0.343,0.397-0.48,0.629
		c-0.137,0.233-0.297,0.443-0.479,0.629c-1.463,1.307-2.947,2.401-4.455,3.286c-1.508,0.887-3.313,1.28-5.414,1.188
		c-2.742-0.094-4.798-1.258-6.169-3.496c-0.458-0.745-0.869-1.538-1.233-2.377c-0.366-0.839-0.686-1.678-0.96-2.517
		c-1.371-4.566-2.377-9.135-3.016-13.704c-0.641-4.566-0.96-9.229-0.96-13.983c0-6.897,0.069-13.75,0.206-20.555
		c0.137-6.804,0.569-13.61,1.303-20.416c0.273-2.144,0.569-4.217,0.891-6.223c0.319-2.003,0.662-4.077,1.028-6.222
		c0.09-0.466,0.158-0.979,0.205-1.539c0.045-0.559,0.113-1.07,0.206-1.538c-0.093,0-0.161-0.022-0.206-0.07
		C625.702,410.099,625.634,410.075,625.544,410.075z"/>
	<path fill="#FFFFFF" d="M735.891,379.032c0.548,3.824,0.98,7.599,1.302,11.327c0.319,3.729,0.433,7.551,0.343,11.466
		c0,0.839-0.047,1.678-0.137,2.517c-0.093,0.839-0.229,1.632-0.411,2.377l-0.823,7.97c-1.006,0.468-1.805,0.629-2.398,0.49
		c-0.596-0.14-1.212-0.675-1.851-1.608c-2.56-3.262-4.022-6.804-4.387-10.627c-0.366-2.703-0.616-5.454-0.754-8.25
		c-0.137-2.796-0.39-5.545-0.754-8.25c-0.274-1.958-0.664-3.937-1.165-5.943c-0.503-2.003-0.983-3.985-1.439-5.943
		c-0.184-0.651-0.435-1.28-0.754-1.888c-0.321-0.605-0.664-1.28-1.028-2.027c-0.914,0.747-1.806,1.422-2.673,2.027
		c-0.869,0.607-1.668,1.283-2.398,2.028c-3.2,3.17-6.216,6.502-9.048,9.998c-2.833,3.496-5.438,7.201-7.813,11.116
		c-2.193,3.636-4.091,7.411-5.688,11.327c-1.6,3.915-2.902,7.97-3.906,12.166c-0.185,0.467-0.274,1.003-0.274,1.608
		c0,0.607,0,1.188,0,1.748c0.274,2.425,0.569,4.824,0.891,7.201c0.319,2.377,0.707,4.778,1.165,7.201
		c0.639,2.985,1.118,6.013,1.439,9.089c0.319,3.076,0.707,6.153,1.165,9.229c0.183,0.933,0.343,1.818,0.48,2.657
		c0.137,0.839,0.295,1.678,0.479,2.517c0.182,1.958,0.388,3.915,0.617,5.873c0.227,1.958,0.433,3.869,0.616,5.733
		c0.274,1.866,0.549,3.775,0.822,5.733c0.274,1.958,0.549,3.87,0.823,5.733c0.182,0.839,0.363,1.678,0.548,2.517
		c0.183,0.839,0.364,1.678,0.549,2.517c0.182,0.653,0.227,1.307,0.137,1.958c-0.092,0.653-0.185,1.306-0.274,1.958
		c-0.092,1.212-0.253,2.401-0.479,3.565c-0.229,1.167-0.709,2.216-1.439,3.146l-0.822,0.839c-0.732,0.653-1.692,0.979-2.879,0.979
		c-0.914,0.467-2.148,0.887-3.701,1.258c-1.555,0.372-3.131,0.56-4.729,0.56c-1.6,0-3.063-0.258-4.386-0.769
		c-1.326-0.511-2.217-1.42-2.674-2.727c-1.188-3.821-2.354-8.669-3.495-14.542c-1.144-5.873-2.262-12.327-3.358-19.367
		c-1.097-7.038-2.148-14.403-3.153-22.093c-1.006-7.691-1.942-15.288-2.81-22.793c-0.87-7.503-1.645-14.658-2.33-21.464
		c-0.686-6.804-1.281-12.816-1.782-18.038c-0.504-5.22-0.87-9.415-1.097-12.585c-0.229-3.168-0.343-4.846-0.343-5.034
		c0.09-0.28,0.501-0.605,1.233-0.979c0.73-0.372,1.577-0.699,2.536-0.979c0.96-0.279,1.94-0.535,2.947-0.769
		c1.005-0.231,1.782-0.441,2.33-0.629c0.09-0.091,0.274-0.14,0.549-0.14c0.09,0,0.137-0.046,0.137-0.14v0.14
		c0.549-0.186,1.073-0.28,1.576-0.28c0.502,0,0.981,0,1.439,0c1.005,0,1.69,0.328,2.057,0.979c0.364,0.653,0.822,1.398,1.371,2.237
		c1.826,2.984,3.334,6.177,4.523,9.579c1.187,3.404,2.238,6.875,3.152,10.417c0.639,2.425,1.165,4.848,1.576,7.271
		c0.412,2.425,0.845,4.849,1.303,7.271c0,0.188,0.021,0.35,0.068,0.489c0.045,0.14,0.113,0.444,0.206,0.909
		c0.364-0.745,0.685-1.398,0.959-1.958c0.274-0.559,0.501-1.07,0.686-1.538c1.735-4.287,4.065-8.436,6.991-12.445
		c2.375-3.168,4.798-6.292,7.265-9.369c2.468-3.077,5.255-5.873,8.362-8.39c0.639-0.559,1.302-1.095,1.987-1.608
		c0.686-0.511,1.393-1.095,2.125-1.748c1.645-1.304,3.403-2.119,5.277-2.447c1.872-0.325,3.814-0.395,5.826-0.209
		c0.822,0.094,1.508,0.419,2.056,0.979c0.549,0.56,1.05,1.167,1.508,1.818c2.01,2.517,3.404,5.222,4.182,8.11
		C734.815,372.973,735.432,375.956,735.891,379.032z"/>
	<path fill="#FFFFFF" d="M842.811,502.644c-1.007,0.092-2.012-0.046-3.016-0.419c-0.822-0.186-1.714-0.56-2.673-1.119
		c-0.96-0.56-1.851-1.35-2.674-2.377c-2.741-4.007-4.845-8.25-6.306-12.725c-1.463-4.475-2.741-9.089-3.838-13.843
		c-0.641-2.889-1.188-5.779-1.645-8.669c-0.459-2.889-0.822-5.825-1.097-8.81c-0.459-4.475-0.938-8.879-1.439-13.214
		c-0.503-4.334-0.983-8.739-1.439-13.214c-0.092-1.21-0.16-2.423-0.206-3.636c-0.047-1.21-0.16-2.517-0.342-3.916
		c-0.823,1.027-1.532,1.982-2.125,2.867c-0.596,0.887-1.075,1.842-1.439,2.867c-1.645,4.475-3.543,8.833-5.688,13.074
		c-2.148,4.243-4.318,8.508-6.512,12.795c-1.007,1.771-1.874,3.565-2.604,5.383c-0.732,1.818-1.6,3.614-2.604,5.383
		c-0.732,1.307-1.508,2.541-2.33,3.706c-0.822,1.167-1.646,2.308-2.468,3.426c-2.011,2.517-4.112,4.872-6.306,7.062
		c-2.193,2.191-4.753,3.985-7.676,5.383c-4.571,2.425-9.414,3.404-14.53,2.937c-2.378-0.186-4.455-0.931-6.237-2.237
		c-1.782-1.304-3.358-2.937-4.729-4.894c-1.463-1.958-2.536-4.055-3.222-6.292c-0.685-2.237-1.165-4.566-1.439-6.992
		c-0.638-4.475-0.754-8.925-0.342-13.354c0.411-4.426,1.072-8.879,1.987-13.354c0.73-3.262,1.529-6.454,2.398-9.579
		c0.868-3.122,2.078-6.174,3.633-9.159c3.564-6.992,8.225-13.284,13.982-18.877c3.472-3.356,7.081-6.432,10.829-9.229
		c3.746-2.796,7.813-5.266,12.2-7.411c4.387-2.143,8.794-3.915,13.228-5.313c4.432-1.398,8.979-2.469,13.64-3.216
		c0.274,0,0.501-0.046,0.686-0.14c0.182-0.092,0.364-0.14,0.548-0.14c0.73-2.329,1.416-4.545,2.057-6.642
		c0.638-2.098,1.323-4.217,2.056-6.363c0.274-1.024,0.845-1.748,1.714-2.167c0.867-0.419,1.94-0.536,3.222-0.35
		c2.283,0.188,3.996,1.143,5.14,2.866c1.142,1.726,1.804,3.38,1.988,4.964c0.456,2.146,0.616,4.334,0.479,6.572
		c-0.137,2.238-0.298,4.429-0.479,6.572c-0.274,5.501-0.504,10.977-0.686,16.43c-0.185,5.454-0.047,10.931,0.411,16.431
		c0.549,6.9,1.348,13.682,2.399,20.345c1.049,6.666,2.307,13.354,3.77,20.066c0.822,4.009,1.734,7.995,2.741,11.956
		c1.005,3.963,2.009,7.9,3.016,11.815c0.549,2.237,1.165,4.429,1.851,6.572c0.686,2.146,1.393,4.335,2.125,6.572
		c0.09,0.374,0.227,1.027,0.411,1.958c0.182,1.307,0.045,2.355-0.411,3.146c-0.458,0.793-1.144,1.656-2.057,2.587
		c-0.732,0.748-1.531,1.329-2.398,1.748c-0.87,0.419-1.714,0.817-2.536,1.188C844.819,502.039,843.815,502.364,842.811,502.644z
		 M777.013,468.245h0.686c0.548-0.186,0.959-0.371,1.233-0.559c5.117-3.076,9.092-7.317,11.926-12.725
		c0.822-1.584,1.576-3.168,2.262-4.754c0.686-1.584,1.439-3.168,2.262-4.754c1.553-2.982,3.222-5.873,5.004-8.669
		c1.782-2.797,3.221-5.825,4.317-9.089c0.913-2.517,1.965-4.986,3.153-7.411c1.187-2.423,2.283-4.846,3.29-7.271
		c1.278-3.168,2.558-6.338,3.838-9.509c1.278-3.168,2.375-6.384,3.29-9.648c0.274-1.024,0.501-2.049,0.686-3.076
		c0.182-1.025,0.137-2.144-0.138-3.356c-1.006,0.188-1.942,0.443-2.81,0.769c-0.87,0.328-1.714,0.723-2.536,1.188
		c-3.29,1.678-6.511,3.45-9.664,5.313c-3.152,1.866-6.192,3.916-9.116,6.153c-2.377,1.866-4.615,3.799-6.717,5.803
		c-2.103,2.005-3.793,4.359-5.071,7.062c-0.549,1.212-1.12,2.401-1.714,3.565c-0.596,1.167-1.12,2.355-1.576,3.566
		c-0.732,1.958-1.439,3.939-2.125,5.943c-0.686,2.006-1.257,4.033-1.713,6.083c-0.459,1.772-0.778,3.566-0.96,5.384
		c-0.185,1.818-0.366,3.66-0.548,5.523c-0.367,3.076-0.527,6.152-0.48,9.229c0.045,3.077,0.343,6.153,0.892,9.229
		c0.182,1.027,0.433,2.076,0.754,3.146C775.755,466.451,776.28,467.406,777.013,468.245z"/>
	<path fill="#FFFFFF" d="M892.432,494.394c-1.829,2.796-3.861,4.754-6.1,5.873c-2.241,1.119-4.318,1.772-6.237,1.958
		c-2.285,0.28-4.523,0.094-6.717-0.56c-1.281-1.678-2.331-3.448-3.153-5.313c-0.822-1.864-1.463-3.867-1.919-6.013
		c-1.097-5.313-1.851-10.673-2.262-16.081c-0.411-5.406-0.709-10.813-0.891-16.221c-0.185-5.034-0.391-9.998-0.617-14.892
		c-0.229-4.894-0.343-9.858-0.343-14.892c0-6.898,0.045-13.773,0.137-20.625c0.09-6.852,0.183-13.773,0.274-20.765
		c0.09-6.432,0.113-12.84,0.068-19.227c-0.047-6.384,0.021-12.795,0.206-19.227c0.09-5.5,0.25-10.953,0.479-16.36
		c0.228-5.405,0.433-10.907,0.617-16.5c0.09-2.703,0.274-5.359,0.548-7.97c0.274-2.609,0.913-5.174,1.919-7.691
		c0.639-1.864,1.508-3.636,2.604-5.313c0.457-0.745,1.028-1.258,1.714-1.538s1.439-0.419,2.262-0.419
		c2.102-0.092,3.884,0.419,5.347,1.538c1.46,1.119,2.694,2.611,3.7,4.475c2.102,4.195,3.496,8.508,4.182,12.935
		c0.686,4.429,1.118,8.973,1.302,13.633c0.183,4.383,0.319,8.718,0.411,13.004c0.09,4.289,0.138,8.624,0.138,13.004
		c0.09,6.433,0.137,12.843,0.137,19.227c0,6.386-0.092,12.795-0.274,19.227c0,4.289-0.092,8.554-0.273,12.794
		c-0.185,4.243-0.366,8.508-0.549,12.795c-0.092,4.103-0.16,8.134-0.205,12.095c-0.048,3.963-0.069,7.949-0.069,11.956
		c0,2.89,0.045,5.733,0.138,8.529c0.09,2.797,0.182,5.642,0.273,8.53c0,2.146,0.046,4.335,0.138,6.572
		c0.09,2.237,0.137,4.475,0.137,6.712c0.09,2.146,0.113,4.265,0.068,6.362c-0.047,2.098-0.068,4.265-0.068,6.502
		c0.364-0.465,0.686-0.909,0.96-1.329s0.593-0.861,0.959-1.328c0.823-0.839,1.622-1.678,2.399-2.517
		c0.775-0.839,1.621-1.63,2.536-2.377c1.187-0.931,2.42-0.885,3.701,0.14c0.638,0.467,0.912,0.979,0.822,1.538
		c-0.092,0.56-0.229,1.167-0.411,1.818c-1.007,2.891-2.217,5.617-3.633,8.18C895.469,489.198,893.984,491.785,892.432,494.394z"/>
</g>
<g>
	<path fill="#FFFFFF" d="M375.126,612.015c0.274,0.467,0.617,0.723,1.028,0.769c0.411,0.048,0.844,0.164,1.302,0.35
		c3.564,1.492,6.967,3.194,10.212,5.104c3.243,1.912,6.237,4.22,8.979,6.922c2.375,2.426,4.477,5.059,6.306,7.9
		c1.827,2.845,3.38,5.897,4.661,9.159c1.371,3.265,2.399,6.551,3.084,9.858c0.686,3.31,1.302,6.736,1.851,10.277
		c0.548,4.01,1.005,7.995,1.371,11.956c0.364,3.963,0.501,7.994,0.411,12.096c0,3.355-0.411,6.571-1.234,9.648
		c-0.822,3.076-1.966,6.061-3.427,8.949c-3.838,7.645-9.184,13.982-16.038,19.017c-6.58,4.755-13.708,7.319-21.384,7.691
		c-6.854,0.279-13.389-0.651-19.603-2.797c-4.296-1.49-8.135-3.961-11.515-7.411c-0.458-0.466-0.87-0.931-1.234-1.398
		c-0.366-0.466-0.915-0.839-1.645-1.119c-0.185,0.748-0.298,1.423-0.343,2.028c-0.047,0.607-0.161,1.236-0.343,1.888
		c-0.092,0.468-0.229,0.863-0.411,1.188c-0.184,0.327-0.503,0.489-0.959,0.489c-0.458,0-1.212,0-2.262,0
		c-1.051,0-1.668-0.186-1.851-0.56c-0.732-1.678-1.257-3.426-1.576-5.243c-0.321-1.818-0.503-3.658-0.548-5.523
		c-0.047-1.864-0.023-3.728,0.068-5.594c0.09-1.863,0.137-3.728,0.137-5.593c-0.092-8.017-0.137-15.987-0.137-23.911
		c0-7.923-0.047-15.848-0.137-23.771c0-4.475-0.092-8.926-0.274-13.354c-0.184-4.427-0.229-8.879-0.137-13.354
		c0-3.263-0.068-6.524-0.206-9.789c-0.137-3.262-0.252-6.523-0.343-9.788c-0.274-8.202-0.822-16.267-1.645-24.19
		c-0.458-3.916-0.754-7.737-0.891-11.467c-0.137-3.728-0.023-7.551,0.343-11.466c0.182-1.305,0.25-2.587,0.206-3.846
		c-0.047-1.259-0.069-2.539-0.069-3.845c0.09-0.932,0.227-1.818,0.412-2.657c0.182-0.839,0.364-1.678,0.548-2.517
		c0.182-1.119,0.617-1.934,1.302-2.447c0.685-0.512,1.529-0.861,2.536-1.049c0.913-0.186,1.667-0.07,2.262,0.35
		c0.593,0.419,1.118,1.003,1.577,1.748c0.73,1.026,1.324,2.027,1.782,3.006c0.457,0.979,1.05,1.936,1.782,2.867
		c0.364,0.373,0.548,0.793,0.548,1.258c0,0.468,0,0.934,0,1.398c0.182,3.17,0.364,6.316,0.548,9.438
		c0.182,3.125,0.364,6.271,0.548,9.439c0.182,3.264,0.388,6.502,0.617,9.718c0.227,3.216,0.57,6.456,1.028,9.719
		c0.73-1.305,1.416-2.609,2.056-3.916c0.638-1.304,1.324-2.608,2.056-3.915c2.101-4.194,4.5-8.132,7.197-11.815
		c2.694-3.682,5.551-7.247,8.567-10.697c2.283-2.703,4.682-5.244,7.196-7.621c2.513-2.377,5.23-4.496,8.156-6.362
		c4.203-2.797,8.818-4.521,13.845-5.174c3.29-0.465,6.076,0.607,8.362,3.216c1.827,2.237,3.016,4.849,3.564,7.831
		c0.274,1.398,0.548,2.797,0.822,4.195c0.274,1.397,0.501,2.796,0.686,4.194c0.274,2.705,0.182,5.362-0.274,7.971
		c-0.458,2.611-1.144,5.174-2.056,7.69c-1.829,5.313-4.365,10.046-7.608,14.193c-3.245,4.149-7.015,7.948-11.309,11.396
		c-1.097,0.933-2.193,1.865-3.29,2.797c-1.097,0.933-2.285,1.771-3.564,2.517c-0.366,0.188-0.709,0.419-1.028,0.699
		C375.422,611.035,375.216,611.455,375.126,612.015z M394.455,671.303c0.09-7.362-0.548-14.868-1.919-22.513
		c-0.548-3.168-1.439-6.175-2.673-9.02c-1.233-2.842-3.039-5.383-5.415-7.62c-5.119-4.661-10.829-7.737-17.135-9.229
		c-1.555-0.371-3.153-0.581-4.798-0.629c-1.645-0.046-3.245,0.21-4.798,0.769c-1.645,0.653-3.313,1.144-5.003,1.469
		c-1.692,0.327-3.405,0.583-5.14,0.769c-1.281,0.188-2.056,0.398-2.331,0.63c-0.274,0.233-0.548,1.003-0.822,2.307
		c-0.458,2.146-0.686,4.266-0.686,6.362c0,2.098,0,4.22,0,6.362c0,2.052,0,4.08,0,6.083c0,2.006-0.047,4.033-0.137,6.083
		c-0.092,3.076-0.252,6.131-0.479,9.159c-0.229,3.03-0.343,6.036-0.343,9.019c0,2.426-0.092,4.849-0.274,7.271
		c-0.185,2.426-0.412,4.849-0.686,7.271c-0.274,3.076,0.045,5.896,0.959,8.46c0.913,2.564,2.604,4.824,5.072,6.781
		c4.203,3.356,8.567,5.572,13.091,6.643c4.523,1.072,9.343,0.677,14.462-1.188c5.209-1.864,9.366-4.66,12.474-8.391
		c3.105-3.727,5.117-8.436,6.031-14.123c0.274-2.143,0.411-4.265,0.411-6.362C394.317,675.568,394.362,673.448,394.455,671.303z
		 M390.342,555.103c-5.119,2.237-9.505,5.268-13.16,9.089c-5.483,6.152-10.441,12.609-14.873,19.367
		c-4.434,6.76-8.385,13.913-11.857,21.464c-0.184,0.468-0.39,1.003-0.617,1.608c-0.229,0.607-0.39,1.376-0.48,2.307
		c1.187-1.304,2.375-2.377,3.564-3.216c1.187-0.839,2.33-1.678,3.427-2.517c1.827-1.305,3.654-2.633,5.483-3.985
		c1.827-1.351,3.564-2.818,5.209-4.405c1.735-1.678,3.379-3.377,4.935-5.104c1.553-1.724,3.106-3.518,4.661-5.384
		C383.763,576.125,388.331,566.383,390.342,555.103z"/>
	<path fill="#FFFFFF" d="M514.809,660.396c-0.092,4.475-0.229,8.46-0.411,11.955c-0.184,3.496-0.686,6.876-1.508,10.138
		c-0.732,2.797-1.508,5.572-2.331,8.32c-0.822,2.751-1.874,5.478-3.153,8.181c-1.281,2.517-2.604,4.987-3.975,7.411
		c-1.371,2.425-2.742,4.848-4.112,7.271c-1.463,2.426-3.2,4.569-5.209,6.433c-2.011,1.866-4.112,3.59-6.306,5.174
		c-0.184,0.188-0.343,0.304-0.48,0.35c-0.137,0.048-0.297,0.164-0.479,0.35c-2.926,2.61-6.124,4.265-9.596,4.964
		c-3.474,0.699-7.038,1.049-10.692,1.049c-1.555,0-3.108-0.162-4.661-0.489c-1.555-0.326-3.107-0.63-4.661-0.909
		c-7.769-1.584-14.188-4.754-19.259-9.509c-5.072-4.754-9.116-10.673-12.132-17.759c-2.741-6.244-4.523-12.631-5.346-19.156
		c-0.823-6.524-0.913-13.145-0.274-19.856c0.457-5.034,1.187-9.974,2.193-14.822c1.004-4.846,2.331-9.648,3.975-14.402
		c2.375-7.084,5.436-13.68,9.185-19.787c3.746-6.104,8.452-11.628,14.119-16.569c7.492-6.524,16.22-10.021,26.182-10.487
		c4.661-0.28,8.841,0.537,12.542,2.446c3.701,1.912,7.013,4.685,9.938,8.32c3.29,4.195,5.826,8.693,7.608,13.494
		c1.782,4.802,3.266,9.718,4.455,14.752c0.73,3.076,1.302,6.152,1.713,9.229c0.411,3.077,0.844,6.201,1.302,9.369
		c0.456,2.705,0.844,5.361,1.165,7.971C514.922,656.435,514.991,658.626,514.809,660.396z M449.696,674.239
		c0.09,3.356,0.685,7.25,1.782,11.676c1.097,4.43,3.016,8.788,5.757,13.075c2.924,4.475,6.464,7.784,10.624,9.928
		c4.157,2.146,8.931,2.984,14.325,2.517c1.278-0.186,2.512-0.511,3.701-0.979c1.187-0.466,2.375-0.979,3.564-1.538
		c2.375-1.211,4.226-2.889,5.552-5.034c1.323-2.144,2.581-4.381,3.77-6.712c1.827-3.821,3.105-7.736,3.838-11.746
		c0.73-4.007,1.278-8.062,1.645-12.165c0.364-3.542,0.548-7.037,0.548-10.487c0-3.448-0.366-6.897-1.097-10.348
		c-0.458-2.423-0.87-4.846-1.233-7.271c-0.366-2.423-0.823-4.846-1.371-7.271c-0.732-3.447-1.624-6.852-2.673-10.207
		c-1.052-3.356-2.491-6.524-4.318-9.509c-1.645-2.797-3.519-5.313-5.62-7.551c-2.104-2.237-4.708-4.008-7.813-5.313
		c-2.652-1.025-4.845-1.281-6.58-0.77c-1.737,0.514-3.474,1.936-5.209,4.265c-4.845,6.433-8.728,13.563-11.652,21.395
		c-2.377,6.62-4.181,13.448-5.415,20.485C450.587,657.718,449.878,665.57,449.696,674.239z"/>
	<path fill="#FFFFFF" d="M653.668,588.103c0.182,1.307,0.227,2.611,0.137,3.916c-0.092,1.307-0.274,2.61-0.548,3.915
		c-0.549,2.425-1.007,4.918-1.371,7.48c-0.366,2.565-0.822,5.104-1.371,7.621c-0.732,3.45-1.486,6.876-2.262,10.278
		c-0.777,3.403-1.531,6.875-2.262,10.417c-1.28,5.688-2.628,11.326-4.044,16.92c-1.418,5.593-2.536,11.326-3.358,17.199
		c-0.458,3.823-0.982,7.599-1.576,11.326c-0.596,3.729-1.212,7.505-1.851,11.326c-0.732,4.104-1.782,8.041-3.152,11.816
		c-1.371,3.775-3.017,7.48-4.936,11.116l-1.233,2.518c-2.104,4.754-5.256,8.39-9.458,10.906c-0.733,0.468-1.509,0.77-2.331,0.909
		s-1.645,0.304-2.467,0.489c-0.732,0.188-1.395,0.118-1.988-0.209c-0.595-0.326-1.212-0.722-1.851-1.189
		c-2.103-1.489-3.793-3.216-5.071-5.174c-1.281-1.957-2.515-4.007-3.701-6.152c-3.656-6.712-6.923-13.516-9.802-20.415
		c-2.878-6.898-5.369-13.983-7.471-21.255c-0.274-1.024-0.548-1.979-0.822-2.866c-0.274-0.885-0.548-1.794-0.822-2.727h-0.549
		c-0.458,1.957-0.959,3.915-1.508,5.872c-0.548,1.958-1.007,3.916-1.37,5.873c-0.823,4.663-1.601,9.253-2.331,13.773
		c-0.732,4.523-1.463,9.113-2.193,13.773c-0.458,2.052-0.891,4.079-1.302,6.083c-0.411,2.006-0.846,4.033-1.303,6.083
		c-0.184,0.653-0.343,1.282-0.479,1.888c-0.137,0.607-0.253,1.236-0.343,1.888c-0.458,2.705-1.325,5.128-2.604,7.271
		c-1.097,1.771-2.491,2.82-4.181,3.146c-1.692,0.326-3.405-0.069-5.141-1.188c-1.555-0.931-2.856-2.049-3.906-3.355
		c-1.052-1.305-1.988-2.749-2.811-4.335c-4.935-8.202-8.91-16.966-11.926-26.288c-1.097-3.263-2.193-6.549-3.29-9.858
		c-1.097-3.308-2.056-6.594-2.878-9.858c-1.281-4.754-2.491-9.53-3.633-14.333c-1.144-4.8-2.217-9.624-3.221-14.473
		c-0.915-4.475-1.713-8.971-2.399-13.493c-0.686-4.521-1.395-9.02-2.125-13.494c-0.638-4.566-0.184-9.181,1.371-13.844
		c0.456-1.304,1.371-2.237,2.742-2.796c1.187-0.372,2.193-0.092,3.016,0.839c2.742,3.449,5.025,7.131,6.854,11.047
		c1.827,3.915,3.38,7.97,4.661,12.165c1.097,3.544,2.215,7.109,3.358,10.697c1.142,3.59,2.215,7.155,3.222,10.697
		c1.004,3.544,1.94,7.109,2.81,10.697c0.868,3.59,1.804,7.155,2.811,10.697c1.553,5.222,2.811,10.465,3.77,15.73
		c0.96,5.268,2.399,10.418,4.317,15.451c0,0.095,0.228,0.56,0.686,1.398c0.364-1.584,0.686-3.052,0.96-4.404
		c0.274-1.351,0.548-2.679,0.822-3.985c1.278-6.524,2.536-13.05,3.77-19.576c1.234-6.524,2.626-13.005,4.182-19.437
		c0.822-3.542,1.803-7.084,2.946-10.628c1.142-3.541,2.855-6.804,5.141-9.788c0.183-0.186,0.296-0.396,0.343-0.629
		c0.045-0.231,0.113-0.441,0.206-0.63c0.548-1.678,1.689-2.563,3.427-2.656c1.278,0,2.398,0.14,3.358,0.419
		c0.96,0.28,1.896,1.027,2.811,2.237c2.009,2.891,3.722,5.873,5.14,8.949c1.416,3.077,2.9,6.153,4.455,9.229
		c1.646,3.45,3.198,6.922,4.661,10.417c1.461,3.496,2.969,7.016,4.523,10.558c3.29,7.086,6.67,14.263,10.144,21.534
		c0.09,0.279,0.411,0.839,0.96,1.678c0.456-1.398,0.912-2.702,1.371-3.915c0.456-1.21,0.822-2.469,1.097-3.775
		c0.912-3.915,1.803-7.782,2.673-11.606c0.867-3.821,1.666-7.69,2.398-11.605c1.646-8.482,3.358-16.941,5.141-25.38
		c1.782-8.436,3.997-16.756,6.648-24.96c1.278-4.101,2.604-8.156,3.976-12.165c1.37-4.008,3.152-7.877,5.346-11.606
		c0.912-1.584,1.896-2.679,2.947-3.286C650.674,588.406,652.022,588.103,653.668,588.103z"/>
	<path fill="#FFFFFF" d="M692.323,723.74c-1.829,2.797-3.861,4.754-6.1,5.873c-2.241,1.118-4.318,1.771-6.237,1.957
		c-2.285,0.28-4.523,0.095-6.717-0.559c-1.281-1.679-2.331-3.448-3.153-5.313c-0.822-1.864-1.463-3.868-1.919-6.014
		c-1.097-5.313-1.851-10.673-2.262-16.08c-0.411-5.405-0.709-10.813-0.891-16.221c-0.185-5.034-0.391-9.998-0.617-14.893
		c-0.229-4.894-0.343-9.857-0.343-14.892c0-6.897,0.045-13.773,0.137-20.625c0.09-6.853,0.183-13.773,0.274-20.766
		c0.09-6.432,0.113-12.841,0.068-19.227c-0.047-6.385,0.021-12.795,0.206-19.228c0.09-5.499,0.25-10.952,0.479-16.36
		c0.228-5.405,0.433-10.906,0.617-16.5c0.09-2.702,0.274-5.359,0.548-7.97c0.274-2.609,0.913-5.174,1.919-7.691
		c0.639-1.864,1.508-3.636,2.604-5.313c0.457-0.745,1.028-1.258,1.714-1.538s1.439-0.419,2.262-0.419
		c2.102-0.092,3.884,0.419,5.347,1.538c1.46,1.119,2.694,2.611,3.7,4.475c2.102,4.195,3.496,8.508,4.182,12.934
		c0.686,4.429,1.118,8.974,1.302,13.634c0.183,4.383,0.319,8.718,0.411,13.005c0.09,4.289,0.138,8.623,0.138,13.004
		c0.09,6.433,0.137,12.843,0.137,19.228c0,6.386-0.092,12.794-0.274,19.227c0,4.289-0.092,8.554-0.273,12.795
		c-0.185,4.243-0.366,8.508-0.549,12.794c-0.092,4.104-0.16,8.135-0.205,12.096c-0.048,3.964-0.069,7.949-0.069,11.956
		c0,2.891,0.045,5.732,0.138,8.529c0.09,2.797,0.182,5.642,0.273,8.53c0,2.146,0.046,4.335,0.138,6.572
		c0.09,2.237,0.137,4.475,0.137,6.712c0.09,2.146,0.113,4.265,0.068,6.362c-0.047,2.097-0.068,4.265-0.068,6.502
		c0.364-0.466,0.686-0.909,0.96-1.328c0.274-0.42,0.593-0.861,0.959-1.329c0.823-0.839,1.622-1.678,2.399-2.517
		c0.775-0.839,1.621-1.63,2.536-2.377c1.187-0.931,2.42-0.885,3.701,0.14c0.638,0.468,0.912,0.979,0.822,1.538
		c-0.092,0.56-0.229,1.167-0.411,1.817c-1.007,2.891-2.217,5.618-3.633,8.181C695.36,718.545,693.876,721.132,692.323,723.74z"/>
	<path fill="#FFFFFF" d="M718.093,671.723c2.193,2.052,4.181,4.149,5.963,6.292c1.782,2.146,2.947,4.755,3.496,7.831
		c0.456,2.705,1.049,5.338,1.781,7.9c0.73,2.565,1.872,5.012,3.428,7.341c1.004,1.398,2.056,2.636,3.152,3.706
		c1.097,1.072,2.283,2.121,3.564,3.146c1.097,0.839,2.283,1.376,3.563,1.607c1.279,0.234,2.558,0.304,3.839,0.21
		c1.097-0.186,2.009-0.56,2.741-1.118c1.097-1.025,2.102-2.144,3.016-3.356c0.912-1.21,1.598-2.608,2.057-4.195
		c1.278-4.38,2.009-8.761,2.193-13.144c0.182-4.381-0.366-8.81-1.646-13.284c-0.732-2.797-1.737-5.43-3.016-7.9
		c-1.281-2.469-2.696-4.87-4.249-7.201c-1.829-2.609-3.633-5.174-5.415-7.691c-1.782-2.517-3.45-5.126-5.003-7.83
		c-1.92-3.263-3.68-6.572-5.278-9.929c-1.6-3.355-2.856-6.897-3.77-10.627c-0.641-2.797-0.869-5.64-0.686-8.53
		c0.183-2.888,0.754-5.709,1.714-8.459c0.96-2.749,2.283-5.29,3.976-7.621c1.689-2.329,3.723-4.335,6.1-6.013
		c0.73-0.466,1.461-0.931,2.193-1.398c0.73-0.466,1.461-0.931,2.193-1.398c2.102-1.305,4.363-2.119,6.785-2.447
		c2.421-0.325,4.798-0.231,7.128,0.28c2.331,0.513,4.545,1.328,6.648,2.446c2.102,1.119,3.929,2.426,5.483,3.916
		c3.198,3.17,6.169,6.712,8.91,10.627c1.005,1.398,1.851,2.866,2.536,4.404s1.392,3.101,2.125,4.685
		c0.456,1.027,0.867,2.006,1.233,2.937c0.364,0.933,0.775,1.912,1.233,2.937c0.549,1.307,0.364,2.565-0.548,3.775
		c-0.274,0.468-0.596,0.839-0.96,1.119c-0.366,0.279-0.869,0.327-1.508,0.14c-1.281-0.092-1.966-0.791-2.056-2.098
		c-0.185-0.839-0.343-1.678-0.48-2.517c-0.137-0.839-0.343-1.63-0.616-2.378c-1.189-2.981-2.697-5.732-4.524-8.25
		c-1.829-2.517-4.067-4.66-6.717-6.432c-1.097-0.745-2.33-1.329-3.701-1.748c-1.37-0.42-2.696-0.815-3.975-1.188
		c-0.823-0.186-1.646-0.162-2.468,0.069c-0.822,0.234-1.555,0.724-2.193,1.469c-1.737,2.052-3.152,4.219-4.249,6.502
		c-1.097,2.285-1.737,4.778-1.919,7.481c-0.093,1.307,0.045,2.564,0.411,3.775c0.363,1.212,0.822,2.331,1.37,3.355
		c1.827,3.729,3.815,7.296,5.963,10.697c2.146,3.404,4.363,6.782,6.648,10.138c1.827,2.518,3.564,5.082,5.209,7.691
		c1.646,2.61,3.198,5.313,4.661,8.11c3.928,7.459,6.121,15.429,6.58,23.911c0.182,4.475,0.068,8.833-0.343,13.074
		c-0.412,4.243-1.258,8.46-2.536,12.654c-1.281,4.942-3.313,9.207-6.101,12.795c-2.788,3.59-6.558,6.41-11.309,8.46
		c-2.012,0.839-4.022,1.307-6.031,1.398c-2.012,0.094-4.067,0.048-6.169-0.14c-6.489-0.56-12.337-2.657-17.546-6.293
		c-2.012-1.49-3.862-3.122-5.552-4.894c-1.692-1.771-3.313-3.588-4.866-5.454c-3.748-4.939-6.353-10.439-7.813-16.5
		c-0.641-2.517-0.844-5.01-0.617-7.481c0.228-2.469,0.707-4.916,1.439-7.341c0.639-2.05,1.371-4.031,2.193-5.942
		C716.585,675.896,717.36,673.868,718.093,671.723z"/>
</g>
<g>
	<path fill="#FFFFFF" d="M434.427,165.729l-5.524,2.738l12.816,25.863l-5.833,2.891l-12.816-25.863l-5.38,2.666l-2.947-5.947
		l16.738-8.294L434.427,165.729z"/>
	<path fill="#FFFFFF" d="M485.756,177.23l-6.65,2.237l-12.041-11.838l-0.567,0.191l4.802,14.273l-6.105,2.054l-11.32-33.648
		l6.476-2.179c2.849-0.958,5.006-1.472,6.473-1.54c2.366-0.133,4.427,0.559,6.184,2.075c1.435,1.234,2.506,2.904,3.215,5.011
		c1.49,4.428,0.457,8.09-3.1,10.986L485.756,177.23z M470.259,155.771c-0.52-1.545-1.534-2.354-3.042-2.425
		c-0.686-0.025-1.84,0.236-3.463,0.782l-1.674,0.563l2.324,6.908l1.913-0.644c1.608-0.541,2.711-1.1,3.308-1.675
		C470.537,158.395,470.749,157.225,470.259,155.771z"/>
	<path fill="#FFFFFF" d="M524.771,154.614c0.488,2.888,0.728,4.903,0.719,6.047c-0.007,2.074-0.519,3.971-1.534,5.693
		c-1.681,2.846-4.321,4.573-7.92,5.182c-2.178,0.368-4.252,0.196-6.223-0.515c-2.124-0.783-3.782-2.085-4.977-3.907
		c-1.066-1.614-1.952-4.508-2.658-8.68l-3.528-20.869l6.351-1.074l3.833,22.672c0.263,1.556,0.546,2.676,0.85,3.359
		c0.49,1.142,1.255,1.927,2.296,2.355c0.828,0.367,1.773,0.46,2.837,0.28c2.339-0.396,3.711-1.615,4.116-3.66
		c0.164-0.877,0.048-2.491-0.35-4.84l-3.692-21.838l6.351-1.074L524.771,154.614z"/>
	<path fill="#FFFFFF" d="M563.727,154.796c0.053,2.928-0.053,5.054-0.32,6.378c-0.463,2.31-1.506,4.035-3.127,5.175
		c-1.286,0.925-2.842,1.404-4.666,1.438c-3.727,0.068-6.933-1.586-9.617-4.964l4.571-4.646c1.774,2.043,3.368,3.052,4.782,3.026
		c0.968-0.018,1.579-0.657,1.832-1.918c0.113-0.549,0.156-1.573,0.128-3.07l-0.456-24.85l6.439-0.118L563.727,154.796z"/>
	<path fill="#FFFFFF" d="M592.281,168.525l-6.387-0.641l3.545-35.323l6.386,0.641L592.281,168.525z"/>
	<path fill="#FFFFFF" d="M629.471,175.19l-15.459-3.393l7.61-34.676l6.291,1.381l-6.233,28.405l9.167,2.012L629.471,175.19z"/>
	<path fill="#FFFFFF" d="M663.075,186.109l-14.899-5.342l11.982-33.417l6.063,2.174l-9.815,27.375l8.835,3.168L663.075,186.109z"/>
	<path fill="#FFFFFF" d="M718.757,194.222c-2.482,4.529-6.061,7.563-10.734,9.101c-4.674,1.539-9.17,1.125-13.486-1.242
		c-4.371-2.396-7.184-5.992-8.437-10.79c-1.253-4.797-0.623-9.488,1.891-14.073c1.625-2.963,3.8-5.32,6.527-7.073
		c2.728-1.753,5.714-2.703,8.961-2.85c3.189-0.141,6.17,0.548,8.94,2.067c4.304,2.359,7.063,5.973,8.277,10.84
		C721.886,185.02,721.239,189.693,718.757,194.222z M713.132,191.083c1.611-2.94,2.058-5.941,1.337-9.002
		c-0.738-3.125-2.5-5.452-5.287-6.979c-2.854-1.565-5.767-1.81-8.736-0.735c-2.912,1.033-5.193,3.054-6.844,6.065
		c-1.892,3.45-2.209,6.824-0.953,10.123c0.97,2.573,2.641,4.509,5.01,5.808c2.76,1.513,5.648,1.736,8.667,0.669
		C709.259,195.992,711.527,194.009,713.132,191.083z"/>
</g>
<path fill-rule="evenodd" clip-rule="evenodd" fill="#66594B" d="M869.247,716.282c7.628-8.308,12.295-18.307,17.31-28.062
	c11.978-23.281,19.631-47.968,24.391-73.412c2.367-12.643,3.589-25.469,4.177-38.383c0.889-19.462-0.276-38.71-3.737-57.871
	c-0.072-0.373-0.312-0.71-0.977-2.172c0.435,7.929-0.455,14.657-0.884,21.41c-0.946,14.826-2.387,29.6-4.335,44.349
	c-2.336,17.699-5.516,35.229-9.785,52.569c-6.457,26.211-14.764,51.889-25.091,76.96c-0.588,1.432-0.818,2.991-1.211,4.494
	L869.247,716.282z"/>
<g>
	<path fill="#FFFFFF" d="M391.063,918.905c-0.901,2.856-2.505,4.879-4.811,6.068c-2.202,1.141-4.587,1.306-7.153,0.495
		c-4.163-1.313-6.552-4.703-7.167-10.17l5.698-1.723c0.477,3.391,1.63,5.374,3.461,5.951c0.849,0.269,1.693,0.228,2.533-0.122
		c0.934-0.37,1.548-1.023,1.844-1.96c0.31-0.982,0.16-2.218-0.451-3.706c-0.237-0.59-0.812-1.685-1.723-3.285
		c-1.702-2.98-2.809-5.162-3.321-6.546c-1.064-2.828-1.259-5.309-0.586-7.441c0.767-2.432,2.223-4.193,4.365-5.284
		c2.044-1.056,4.156-1.239,6.337-0.551c2.939,0.928,5.204,3.601,6.792,8.019l-5.432,2.824c-0.72-2.757-1.829-4.371-3.327-4.844
		c-0.61-0.192-1.218-0.185-1.822,0.021c-0.69,0.247-1.14,0.702-1.349,1.365c-0.176,0.558-0.177,1.138-0.002,1.739
		c0.246,0.84,1.157,2.694,2.734,5.563c1.514,2.742,2.401,4.419,2.661,5.029C391.664,913.393,391.903,916.244,391.063,918.905z"/>
	<path fill="#FFFFFF" d="M428.55,937.019l-5.533-1.237l1.565-22.157l-11.173,20.011l-5.037-1.126l-1.51-22.845l-8.078,20.702
		l-5.594-1.25l12.771-32.785l5.594,1.251l1.66,25.228l12.344-22.098l5.512,1.231L428.55,937.019z"/>
	<path fill="#FFFFFF" d="M467.427,925.089c-0.708,5.01-2.82,9.046-6.336,12.107s-7.491,4.278-11.924,3.653
		c-4.488-0.634-8.018-2.915-10.589-6.845c-2.572-3.929-3.5-8.43-2.784-13.502c0.463-3.278,1.586-6.199,3.372-8.766
		c1.785-2.565,4.042-4.491,6.773-5.777c2.685-1.26,5.45-1.689,8.294-1.288c4.419,0.624,7.909,2.939,10.47,6.946
		C467.226,915.589,468.134,920.078,467.427,925.089z M461.634,924.223c0.459-3.253-0.098-6.146-1.671-8.682
		c-1.609-2.588-3.844-4.084-6.705-4.488c-2.93-0.413-5.498,0.396-7.702,2.43c-2.168,1.976-3.487,4.628-3.958,7.959
		c-0.539,3.816,0.245,7.006,2.35,9.567c1.635,2.002,3.668,3.174,6.102,3.518c2.833,0.4,5.375-0.421,7.623-2.465
		C459.856,930.073,461.177,927.46,461.634,924.223z"/>
	<path fill="#FFFFFF" d="M488.063,915.873l-5.581-0.529l-2.67,28.152l-5.894-0.56l2.67-28.151l-5.436-0.516l0.614-6.474l16.91,1.604
		L488.063,915.873z"/>
	<path fill="#FFFFFF" d="M512.223,945.768l-5.888-0.356l0.924-15.246l-10.315-0.625l-0.924,15.246l-5.909-0.358l2.104-34.717
		l5.909,0.358l-0.793,13.099l10.315,0.625l0.793-13.099l5.888,0.356L512.223,945.768z"/>
	<path fill="#FFFFFF" d="M525.024,946.188l-5.833-0.201l1.202-34.761l5.833,0.202L525.024,946.188z"/>
	<path fill="#FFFFFF" d="M548.238,946.65l-16.796-0.259l0.537-34.776l16.796,0.259l-0.1,6.454l-10.96-0.169l-0.098,6.336
		l10.96,0.169L548.479,931l-10.96-0.169l-0.142,9.173l10.96,0.169L548.238,946.65z"/>
	<path fill="#FFFFFF" d="M570.377,937.537c0.024,2.995-0.877,5.414-2.703,7.257c-1.744,1.764-3.961,2.656-6.652,2.677
		c-4.365,0.035-7.683-2.453-9.954-7.463l4.89-3.396c1.499,3.077,3.208,4.608,5.128,4.594c0.891-0.008,1.681-0.307,2.372-0.898
		c0.773-0.64,1.157-1.451,1.149-2.433c-0.009-1.03-0.532-2.159-1.572-3.387c-0.408-0.487-1.292-1.353-2.652-2.593
		c-2.538-2.311-4.264-4.045-5.178-5.202c-1.885-2.363-2.836-4.662-2.854-6.898c-0.021-2.55,0.82-4.675,2.522-6.373
		c1.619-1.635,3.571-2.461,5.858-2.479c3.082-0.024,6.061,1.819,8.935,5.532l-4.296,4.361c-1.534-2.399-3.088-3.593-4.658-3.581
		c-0.641,0.006-1.216,0.2-1.727,0.583c-0.581,0.447-0.868,1.019-0.863,1.714c0.005,0.586,0.184,1.137,0.535,1.656
		c0.493,0.723,1.932,2.206,4.316,4.447c2.286,2.142,3.647,3.463,4.083,3.963C569.248,932.107,570.355,934.747,570.377,937.537z"/>
	<path fill="#FFFFFF" d="M613.453,944.593l-12.675,0.763c-3.383,0.203-5.912-0.15-7.588-1.062c-2.267-1.223-3.507-3.612-3.721-7.171
		c-0.262-4.346,1.595-7.168,5.568-8.466c-1.53-0.35-2.813-1.235-3.849-2.656c-0.991-1.376-1.539-2.953-1.646-4.729
		c-0.188-3.113,0.656-5.603,2.53-7.467c1.702-1.696,3.974-2.63,6.817-2.801c2.968-0.179,5.387,0.505,7.256,2.051
		s2.836,2.854,2.9,3.924c0.027,0.456-0.327,1.073-1.063,1.852c-0.735,0.779-1.326,1.182-1.771,1.208
		c-0.292,0.018-1.212-0.586-2.76-1.812s-2.962-1.8-4.242-1.723c-1.323,0.079-2.371,0.543-3.144,1.391
		c-0.799,0.896-1.153,2.08-1.065,3.552c0.093,1.534,0.569,2.637,1.432,3.308c0.555,0.438,1.395,0.741,2.519,0.909
		c1.081,0.156,1.711,0.325,1.889,0.505c0.253,0.271,0.41,0.91,0.471,1.922c0.075,1.248-0.018,2.038-0.276,2.371
		c-0.26,0.333-0.98,0.653-2.164,0.963c-1.28,0.313-2.179,0.697-2.696,1.154c-0.851,0.729-1.229,1.885-1.133,3.469
		c0.12,1.993,0.94,3.212,2.462,3.655c0.711,0.21,2.208,0.245,4.491,0.108l6.014-0.362l-0.521-8.661
		c-1.253,0.075-2.073,0.021-2.462-0.162c-0.634-0.311-0.987-1.082-1.062-2.314s0.121-2.061,0.586-2.485
		c0.358-0.323,1.117-0.52,2.275-0.589l5.442-0.327L613.453,944.593z"/>
	<path fill="#FFFFFF" d="M660.74,909.848l-3.401,4.979c-3.25-2.893-6.597-4.081-10.041-3.566c-2.921,0.437-5.205,1.925-6.854,4.463
		c-1.648,2.538-2.226,5.463-1.73,8.774c0.71,4.749,2.912,7.933,6.605,9.553c1.764,0.774,3.631,1.014,5.601,0.719
		c1.86-0.277,3.482-0.969,4.867-2.072c1.154-0.941,2.351-2.361,3.589-4.26l4.623,4.042c-1.752,2.621-3.498,4.571-5.238,5.852
		c-1.933,1.404-4.265,2.312-6.996,2.72c-4.73,0.707-8.854-0.397-12.371-3.313c-3.518-2.917-5.676-7.049-6.476-12.396
		c-1.049-7.015,0.829-12.604,5.636-16.765c2.31-2.003,4.939-3.225,7.892-3.666C651.781,904.11,656.547,905.757,660.74,909.848z"/>
	<path fill="#FFFFFF" d="M698.318,930.293l-5.891,1.447l-4.049-6.382l-12.203,2.999l-0.73,7.557l-5.892,1.447l3.209-36.604
		l5.766-1.417L698.318,930.293z M684.708,919.638l-6.827-10.667l-1.125,12.621L684.708,919.638z"/>
	<path fill="#FFFFFF" d="M713.856,908.101l-8.901,3.19l5.28,14.734l-5.475,1.962l-11.732-32.742l14.375-5.151l2.17,6.055
		l-8.901,3.189l2.146,5.987l8.901-3.189L713.856,908.101z"/>
	<path fill="#FFFFFF" d="M741.246,912.454l-15.078,7.403l-15.329-31.22l15.078-7.403l2.845,5.794l-9.839,4.831l2.793,5.688
		l9.839-4.832l2.793,5.688l-9.839,4.831l4.043,8.235l9.84-4.832L741.246,912.454z"/>
</g>
<path fill-rule="evenodd" clip-rule="evenodd" fill="#FFFFFF" stroke="#FFFFFF" stroke-miterlimit="10" d="M715.822,876.313
	c0.608-3.042,1.229-6.815,2.395-9.672"/>
</svg>
